<mxfile host="Electron" modified="2023-10-08T20:27:49.261Z" agent="Mozilla/5.0 (Windows NT 10.0; Win64; x64) AppleWebKit/537.36 (KHTML, like Gecko) draw.io/22.0.2 Chrome/114.0.5735.289 Electron/25.8.4 Safari/537.36" etag="4v6yGmtYnycZnp8fz9Il" version="22.0.2" type="device">
  <diagram id="C5RBs43oDa-KdzZeNtuy" name="Page-1">
    <mxGraphModel dx="8770" dy="4830" grid="0" gridSize="10" guides="1" tooltips="1" connect="1" arrows="1" fold="1" page="0" pageScale="1" pageWidth="1169" pageHeight="827" math="0" shadow="0">
      <root>
        <mxCell id="WIyWlLk6GJQsqaUBKTNV-0" />
        <mxCell id="WIyWlLk6GJQsqaUBKTNV-1" parent="WIyWlLk6GJQsqaUBKTNV-0" />
        <mxCell id="BV8wg840wPrGjcRKnUG_-57" style="edgeStyle=none;curved=1;rounded=0;orthogonalLoop=1;jettySize=auto;html=1;exitX=0.5;exitY=1;exitDx=0;exitDy=0;exitPerimeter=0;fontSize=12;startSize=8;endSize=8;" edge="1" parent="WIyWlLk6GJQsqaUBKTNV-1" source="OSwz9mZx2y16JJXnJqib-0" target="BV8wg840wPrGjcRKnUG_-0">
          <mxGeometry relative="1" as="geometry" />
        </mxCell>
        <mxCell id="OSwz9mZx2y16JJXnJqib-0" value="start" style="strokeWidth=2;html=1;shape=mxgraph.flowchart.terminator;whiteSpace=wrap;fontSize=16;" parent="WIyWlLk6GJQsqaUBKTNV-1" vertex="1">
          <mxGeometry x="535" y="-50" width="100" height="60" as="geometry" />
        </mxCell>
        <mxCell id="BV8wg840wPrGjcRKnUG_-58" style="edgeStyle=none;curved=1;rounded=0;orthogonalLoop=1;jettySize=auto;html=1;exitX=0.5;exitY=1;exitDx=0;exitDy=0;entryX=0.5;entryY=0;entryDx=0;entryDy=0;fontSize=12;startSize=8;endSize=8;" edge="1" parent="WIyWlLk6GJQsqaUBKTNV-1" source="BV8wg840wPrGjcRKnUG_-0" target="BV8wg840wPrGjcRKnUG_-2">
          <mxGeometry relative="1" as="geometry" />
        </mxCell>
        <mxCell id="BV8wg840wPrGjcRKnUG_-0" value="panjang argumen=0&lt;br&gt;Barang: Nama, Stock, Harga" style="shape=parallelogram;html=1;strokeWidth=2;perimeter=parallelogramPerimeter;whiteSpace=wrap;rounded=1;arcSize=12;size=0.23;fontSize=16;" vertex="1" parent="WIyWlLk6GJQsqaUBKTNV-1">
          <mxGeometry x="420" y="80" width="330" height="80" as="geometry" />
        </mxCell>
        <mxCell id="BV8wg840wPrGjcRKnUG_-59" style="edgeStyle=none;curved=1;rounded=0;orthogonalLoop=1;jettySize=auto;html=1;exitX=0.5;exitY=1;exitDx=0;exitDy=0;fontSize=12;startSize=8;endSize=8;" edge="1" parent="WIyWlLk6GJQsqaUBKTNV-1" source="BV8wg840wPrGjcRKnUG_-2" target="BV8wg840wPrGjcRKnUG_-3">
          <mxGeometry relative="1" as="geometry" />
        </mxCell>
        <mxCell id="BV8wg840wPrGjcRKnUG_-2" value="mendeteksi panjang argumen pada saat run aplikasi" style="rounded=1;whiteSpace=wrap;html=1;absoluteArcSize=1;arcSize=14;strokeWidth=2;fontSize=16;" vertex="1" parent="WIyWlLk6GJQsqaUBKTNV-1">
          <mxGeometry x="497" y="220" width="175" height="100" as="geometry" />
        </mxCell>
        <mxCell id="BV8wg840wPrGjcRKnUG_-62" style="edgeStyle=none;curved=1;rounded=0;orthogonalLoop=1;jettySize=auto;html=1;exitX=1;exitY=0.5;exitDx=0;exitDy=0;exitPerimeter=0;fontSize=12;startSize=8;endSize=8;" edge="1" parent="WIyWlLk6GJQsqaUBKTNV-1" source="BV8wg840wPrGjcRKnUG_-3" target="BV8wg840wPrGjcRKnUG_-61">
          <mxGeometry relative="1" as="geometry" />
        </mxCell>
        <mxCell id="BV8wg840wPrGjcRKnUG_-63" value="false" style="edgeLabel;html=1;align=center;verticalAlign=middle;resizable=0;points=[];fontSize=16;" vertex="1" connectable="0" parent="BV8wg840wPrGjcRKnUG_-62">
          <mxGeometry x="-0.0966" y="-5" relative="1" as="geometry">
            <mxPoint as="offset" />
          </mxGeometry>
        </mxCell>
        <mxCell id="BV8wg840wPrGjcRKnUG_-3" value="panjang &lt;br&gt;argumen &amp;gt; 1" style="strokeWidth=2;html=1;shape=mxgraph.flowchart.decision;whiteSpace=wrap;fontSize=16;" vertex="1" parent="WIyWlLk6GJQsqaUBKTNV-1">
          <mxGeometry x="512.5" y="370" width="145" height="100" as="geometry" />
        </mxCell>
        <mxCell id="BV8wg840wPrGjcRKnUG_-75" style="edgeStyle=none;curved=1;rounded=0;orthogonalLoop=1;jettySize=auto;html=1;exitX=0.5;exitY=1;exitDx=0;exitDy=0;exitPerimeter=0;fontSize=12;startSize=8;endSize=8;" edge="1" parent="WIyWlLk6GJQsqaUBKTNV-1" source="BV8wg840wPrGjcRKnUG_-4" target="BV8wg840wPrGjcRKnUG_-10">
          <mxGeometry relative="1" as="geometry" />
        </mxCell>
        <mxCell id="BV8wg840wPrGjcRKnUG_-76" value="true" style="edgeLabel;html=1;align=center;verticalAlign=middle;resizable=0;points=[];fontSize=16;" vertex="1" connectable="0" parent="BV8wg840wPrGjcRKnUG_-75">
          <mxGeometry x="0.012" relative="1" as="geometry">
            <mxPoint as="offset" />
          </mxGeometry>
        </mxCell>
        <mxCell id="BV8wg840wPrGjcRKnUG_-4" value="argumen kedua&lt;br&gt;terdapat kata&lt;br&gt;&amp;nbsp;&quot;tambah&quot;" style="strokeWidth=2;html=1;shape=mxgraph.flowchart.decision;whiteSpace=wrap;fontSize=16;" vertex="1" parent="WIyWlLk6GJQsqaUBKTNV-1">
          <mxGeometry x="230" y="365" width="200" height="110" as="geometry" />
        </mxCell>
        <mxCell id="BV8wg840wPrGjcRKnUG_-6" value="argumen kedua&lt;br&gt;terdapat kata&lt;br&gt;&amp;nbsp;&quot;cari&quot;" style="strokeWidth=2;html=1;shape=mxgraph.flowchart.decision;whiteSpace=wrap;fontSize=16;" vertex="1" parent="WIyWlLk6GJQsqaUBKTNV-1">
          <mxGeometry x="-40" y="365" width="200" height="110" as="geometry" />
        </mxCell>
        <mxCell id="BV8wg840wPrGjcRKnUG_-73" style="edgeStyle=none;curved=1;rounded=0;orthogonalLoop=1;jettySize=auto;html=1;exitX=0;exitY=0.5;exitDx=0;exitDy=0;exitPerimeter=0;fontSize=12;startSize=8;endSize=8;" edge="1" parent="WIyWlLk6GJQsqaUBKTNV-1" source="BV8wg840wPrGjcRKnUG_-7" target="BV8wg840wPrGjcRKnUG_-44">
          <mxGeometry relative="1" as="geometry" />
        </mxCell>
        <mxCell id="BV8wg840wPrGjcRKnUG_-74" value="false" style="edgeLabel;html=1;align=center;verticalAlign=middle;resizable=0;points=[];fontSize=16;" vertex="1" connectable="0" parent="BV8wg840wPrGjcRKnUG_-73">
          <mxGeometry x="0.2542" y="1" relative="1" as="geometry">
            <mxPoint x="14" y="-1" as="offset" />
          </mxGeometry>
        </mxCell>
        <mxCell id="BV8wg840wPrGjcRKnUG_-131" value="" style="edgeStyle=none;curved=1;rounded=0;orthogonalLoop=1;jettySize=auto;html=1;fontSize=12;startSize=8;endSize=8;" edge="1" parent="WIyWlLk6GJQsqaUBKTNV-1" source="BV8wg840wPrGjcRKnUG_-7" target="BV8wg840wPrGjcRKnUG_-56">
          <mxGeometry relative="1" as="geometry" />
        </mxCell>
        <mxCell id="BV8wg840wPrGjcRKnUG_-7" value="argumen kedua&lt;br&gt;terdapat kata&lt;br&gt;&amp;nbsp;&quot;tentang&quot;" style="strokeWidth=2;html=1;shape=mxgraph.flowchart.decision;whiteSpace=wrap;fontSize=16;" vertex="1" parent="WIyWlLk6GJQsqaUBKTNV-1">
          <mxGeometry x="-630" y="365" width="200" height="110" as="geometry" />
        </mxCell>
        <mxCell id="BV8wg840wPrGjcRKnUG_-8" value="argumen kedua&lt;br&gt;terdapat kata&lt;br&gt;&amp;nbsp;&quot;lihat&quot;" style="strokeWidth=2;html=1;shape=mxgraph.flowchart.decision;whiteSpace=wrap;fontSize=16;" vertex="1" parent="WIyWlLk6GJQsqaUBKTNV-1">
          <mxGeometry x="-310" y="365" width="200" height="110" as="geometry" />
        </mxCell>
        <mxCell id="BV8wg840wPrGjcRKnUG_-77" style="edgeStyle=none;curved=1;rounded=0;orthogonalLoop=1;jettySize=auto;html=1;exitX=0.5;exitY=1;exitDx=0;exitDy=0;exitPerimeter=0;fontSize=12;startSize=8;endSize=8;" edge="1" parent="WIyWlLk6GJQsqaUBKTNV-1" source="BV8wg840wPrGjcRKnUG_-10" target="BV8wg840wPrGjcRKnUG_-11">
          <mxGeometry relative="1" as="geometry" />
        </mxCell>
        <mxCell id="BV8wg840wPrGjcRKnUG_-78" value="true" style="edgeLabel;html=1;align=center;verticalAlign=middle;resizable=0;points=[];fontSize=16;" vertex="1" connectable="0" parent="BV8wg840wPrGjcRKnUG_-77">
          <mxGeometry x="-0.1089" relative="1" as="geometry">
            <mxPoint as="offset" />
          </mxGeometry>
        </mxCell>
        <mxCell id="BV8wg840wPrGjcRKnUG_-10" value="melihat apakah&lt;br&gt;&amp;nbsp;argumen ketiga, keempat,&lt;br&gt;&amp;nbsp;dan kelima ada" style="strokeWidth=2;html=1;shape=mxgraph.flowchart.decision;whiteSpace=wrap;fontSize=16;" vertex="1" parent="WIyWlLk6GJQsqaUBKTNV-1">
          <mxGeometry x="225" y="520" width="210" height="130" as="geometry" />
        </mxCell>
        <mxCell id="BV8wg840wPrGjcRKnUG_-11" value="menjadikan nilai dari argumen kedua sebagai nama barang" style="rounded=1;whiteSpace=wrap;html=1;absoluteArcSize=1;arcSize=14;strokeWidth=2;fontSize=16;" vertex="1" parent="WIyWlLk6GJQsqaUBKTNV-1">
          <mxGeometry x="240" y="727" width="180" height="100" as="geometry" />
        </mxCell>
        <mxCell id="BV8wg840wPrGjcRKnUG_-83" style="edgeStyle=none;curved=1;rounded=0;orthogonalLoop=1;jettySize=auto;html=1;exitX=0.5;exitY=1;exitDx=0;exitDy=0;entryX=0.5;entryY=0;entryDx=0;entryDy=0;fontSize=12;startSize=8;endSize=8;" edge="1" parent="WIyWlLk6GJQsqaUBKTNV-1" source="BV8wg840wPrGjcRKnUG_-12" target="BV8wg840wPrGjcRKnUG_-14">
          <mxGeometry relative="1" as="geometry" />
        </mxCell>
        <mxCell id="BV8wg840wPrGjcRKnUG_-12" value="menjadikan nilai dari argumen ketiga sebagai stok barang" style="rounded=1;whiteSpace=wrap;html=1;absoluteArcSize=1;arcSize=14;strokeWidth=2;fontSize=16;" vertex="1" parent="WIyWlLk6GJQsqaUBKTNV-1">
          <mxGeometry x="248.75" y="880" width="180" height="100" as="geometry" />
        </mxCell>
        <mxCell id="BV8wg840wPrGjcRKnUG_-84" style="edgeStyle=none;curved=1;rounded=0;orthogonalLoop=1;jettySize=auto;html=1;exitX=0.5;exitY=1;exitDx=0;exitDy=0;fontSize=12;startSize=8;endSize=8;" edge="1" parent="WIyWlLk6GJQsqaUBKTNV-1" source="BV8wg840wPrGjcRKnUG_-14" target="BV8wg840wPrGjcRKnUG_-19">
          <mxGeometry relative="1" as="geometry" />
        </mxCell>
        <mxCell id="BV8wg840wPrGjcRKnUG_-14" value="menjadikan nilai dari argumen keempat sebagai harga barang" style="rounded=1;whiteSpace=wrap;html=1;absoluteArcSize=1;arcSize=14;strokeWidth=2;fontSize=16;" vertex="1" parent="WIyWlLk6GJQsqaUBKTNV-1">
          <mxGeometry x="248.75" y="1050" width="180" height="100" as="geometry" />
        </mxCell>
        <mxCell id="BV8wg840wPrGjcRKnUG_-90" value="" style="edgeStyle=none;curved=1;rounded=0;orthogonalLoop=1;jettySize=auto;html=1;fontSize=12;startSize=8;endSize=8;" edge="1" parent="WIyWlLk6GJQsqaUBKTNV-1" source="BV8wg840wPrGjcRKnUG_-17" target="BV8wg840wPrGjcRKnUG_-18">
          <mxGeometry relative="1" as="geometry" />
        </mxCell>
        <mxCell id="BV8wg840wPrGjcRKnUG_-17" value="stokInt = 0&lt;br&gt;hargaFloat = 0.0" style="shape=parallelogram;html=1;strokeWidth=2;perimeter=parallelogramPerimeter;whiteSpace=wrap;rounded=1;arcSize=12;size=0.23;fontSize=16;" vertex="1" parent="WIyWlLk6GJQsqaUBKTNV-1">
          <mxGeometry x="241.75" y="1530" width="200" height="80" as="geometry" />
        </mxCell>
        <mxCell id="BV8wg840wPrGjcRKnUG_-91" value="" style="edgeStyle=none;curved=1;rounded=0;orthogonalLoop=1;jettySize=auto;html=1;fontSize=12;startSize=8;endSize=8;" edge="1" parent="WIyWlLk6GJQsqaUBKTNV-1" source="BV8wg840wPrGjcRKnUG_-18" target="BV8wg840wPrGjcRKnUG_-20">
          <mxGeometry relative="1" as="geometry" />
        </mxCell>
        <mxCell id="BV8wg840wPrGjcRKnUG_-18" value="melakukan konfersi tipe data harga dari string menjadi float64" style="rounded=1;whiteSpace=wrap;html=1;absoluteArcSize=1;arcSize=14;strokeWidth=2;fontSize=16;" vertex="1" parent="WIyWlLk6GJQsqaUBKTNV-1">
          <mxGeometry x="246.25" y="1680" width="195" height="100" as="geometry" />
        </mxCell>
        <mxCell id="BV8wg840wPrGjcRKnUG_-19" value="memasukkan nilai dari nama, stok dan harga ke slice Barang" style="rounded=1;whiteSpace=wrap;html=1;absoluteArcSize=1;arcSize=14;strokeWidth=2;fontSize=16;" vertex="1" parent="WIyWlLk6GJQsqaUBKTNV-1">
          <mxGeometry x="236.25" y="1210" width="205" height="100" as="geometry" />
        </mxCell>
        <mxCell id="BV8wg840wPrGjcRKnUG_-92" value="" style="edgeStyle=none;curved=1;rounded=0;orthogonalLoop=1;jettySize=auto;html=1;fontSize=12;startSize=8;endSize=8;" edge="1" parent="WIyWlLk6GJQsqaUBKTNV-1" source="BV8wg840wPrGjcRKnUG_-20" target="BV8wg840wPrGjcRKnUG_-21">
          <mxGeometry relative="1" as="geometry" />
        </mxCell>
        <mxCell id="BV8wg840wPrGjcRKnUG_-20" value="melakukan konfersi tipe data stok dari string menjadi int" style="rounded=1;whiteSpace=wrap;html=1;absoluteArcSize=1;arcSize=14;strokeWidth=2;fontSize=16;" vertex="1" parent="WIyWlLk6GJQsqaUBKTNV-1">
          <mxGeometry x="246.25" y="1830" width="195" height="100" as="geometry" />
        </mxCell>
        <mxCell id="BV8wg840wPrGjcRKnUG_-93" value="" style="edgeStyle=none;curved=1;rounded=0;orthogonalLoop=1;jettySize=auto;html=1;fontSize=12;startSize=8;endSize=8;" edge="1" parent="WIyWlLk6GJQsqaUBKTNV-1" source="BV8wg840wPrGjcRKnUG_-21" target="BV8wg840wPrGjcRKnUG_-24">
          <mxGeometry relative="1" as="geometry" />
        </mxCell>
        <mxCell id="BV8wg840wPrGjcRKnUG_-21" value="membuat object dengan nama barang, yang berisi data dari slice barang yang tipe datanya telah di konversi&amp;nbsp;" style="rounded=1;whiteSpace=wrap;html=1;absoluteArcSize=1;arcSize=14;strokeWidth=2;fontSize=16;" vertex="1" parent="WIyWlLk6GJQsqaUBKTNV-1">
          <mxGeometry x="248.75" y="1990" width="195" height="100" as="geometry" />
        </mxCell>
        <mxCell id="BV8wg840wPrGjcRKnUG_-94" value="" style="edgeStyle=none;curved=1;rounded=0;orthogonalLoop=1;jettySize=auto;html=1;fontSize=12;startSize=8;endSize=8;" edge="1" parent="WIyWlLk6GJQsqaUBKTNV-1" source="BV8wg840wPrGjcRKnUG_-24" target="BV8wg840wPrGjcRKnUG_-25">
          <mxGeometry relative="1" as="geometry" />
        </mxCell>
        <mxCell id="BV8wg840wPrGjcRKnUG_-24" value="memasukkan data dari objek barang ke dalam slice data" style="rounded=1;whiteSpace=wrap;html=1;absoluteArcSize=1;arcSize=14;strokeWidth=2;fontSize=16;" vertex="1" parent="WIyWlLk6GJQsqaUBKTNV-1">
          <mxGeometry x="248.75" y="2160" width="197.5" height="100" as="geometry" />
        </mxCell>
        <mxCell id="BV8wg840wPrGjcRKnUG_-95" value="" style="edgeStyle=none;curved=1;rounded=0;orthogonalLoop=1;jettySize=auto;html=1;fontSize=12;startSize=8;endSize=8;" edge="1" parent="WIyWlLk6GJQsqaUBKTNV-1" source="BV8wg840wPrGjcRKnUG_-25" target="BV8wg840wPrGjcRKnUG_-28">
          <mxGeometry relative="1" as="geometry" />
        </mxCell>
        <mxCell id="BV8wg840wPrGjcRKnUG_-25" value="melakukan reformat slice data ke dalam bentuk json" style="rounded=1;whiteSpace=wrap;html=1;absoluteArcSize=1;arcSize=14;strokeWidth=2;fontSize=16;" vertex="1" parent="WIyWlLk6GJQsqaUBKTNV-1">
          <mxGeometry x="248.75" y="2330" width="205" height="100" as="geometry" />
        </mxCell>
        <mxCell id="BV8wg840wPrGjcRKnUG_-100" value="" style="edgeStyle=none;curved=1;rounded=0;orthogonalLoop=1;jettySize=auto;html=1;fontSize=12;startSize=8;endSize=8;" edge="1" parent="WIyWlLk6GJQsqaUBKTNV-1" source="BV8wg840wPrGjcRKnUG_-28" target="BV8wg840wPrGjcRKnUG_-30">
          <mxGeometry relative="1" as="geometry" />
        </mxCell>
        <mxCell id="BV8wg840wPrGjcRKnUG_-28" value="&amp;nbsp;menuliskan data json dalam bentuk string ke dalam file barang.txt" style="rounded=1;whiteSpace=wrap;html=1;absoluteArcSize=1;arcSize=14;strokeWidth=2;fontSize=16;" vertex="1" parent="WIyWlLk6GJQsqaUBKTNV-1">
          <mxGeometry x="246.25" y="2500" width="205" height="100" as="geometry" />
        </mxCell>
        <mxCell id="BV8wg840wPrGjcRKnUG_-98" value="" style="edgeStyle=none;curved=1;rounded=0;orthogonalLoop=1;jettySize=auto;html=1;fontSize=12;startSize=8;endSize=8;" edge="1" parent="WIyWlLk6GJQsqaUBKTNV-1" source="BV8wg840wPrGjcRKnUG_-30">
          <mxGeometry relative="1" as="geometry">
            <mxPoint x="350.225065616798" y="2860" as="targetPoint" />
          </mxGeometry>
        </mxCell>
        <mxCell id="BV8wg840wPrGjcRKnUG_-30" value="menutup file barang.txt" style="strokeWidth=2;html=1;shape=mxgraph.flowchart.document2;whiteSpace=wrap;size=0.25;fontSize=16;" vertex="1" parent="WIyWlLk6GJQsqaUBKTNV-1">
          <mxGeometry x="281.25" y="2670" width="135" height="99" as="geometry" />
        </mxCell>
        <mxCell id="BV8wg840wPrGjcRKnUG_-101" style="edgeStyle=orthogonalEdgeStyle;rounded=0;orthogonalLoop=1;jettySize=auto;html=1;exitX=0.5;exitY=1;exitDx=0;exitDy=0;fontSize=12;startSize=8;endSize=8;" edge="1" parent="WIyWlLk6GJQsqaUBKTNV-1" target="BV8wg840wPrGjcRKnUG_-68">
          <mxGeometry relative="1" as="geometry">
            <mxPoint x="350.75" y="2960" as="sourcePoint" />
            <Array as="points">
              <mxPoint x="351" y="3290" />
            </Array>
          </mxGeometry>
        </mxCell>
        <mxCell id="BV8wg840wPrGjcRKnUG_-105" style="edgeStyle=none;curved=1;rounded=0;orthogonalLoop=1;jettySize=auto;html=1;exitX=0.5;exitY=1;exitDx=0;exitDy=0;exitPerimeter=0;fontSize=12;startSize=8;endSize=8;" edge="1" parent="WIyWlLk6GJQsqaUBKTNV-1" source="BV8wg840wPrGjcRKnUG_-34" target="BV8wg840wPrGjcRKnUG_-35">
          <mxGeometry relative="1" as="geometry" />
        </mxCell>
        <mxCell id="BV8wg840wPrGjcRKnUG_-106" value="true" style="edgeLabel;html=1;align=center;verticalAlign=middle;resizable=0;points=[];fontSize=16;" vertex="1" connectable="0" parent="BV8wg840wPrGjcRKnUG_-105">
          <mxGeometry x="-0.0789" y="1" relative="1" as="geometry">
            <mxPoint as="offset" />
          </mxGeometry>
        </mxCell>
        <mxCell id="BV8wg840wPrGjcRKnUG_-34" value="melihat apakah&lt;br&gt;&amp;nbsp;argumen ketiga" style="strokeWidth=2;html=1;shape=mxgraph.flowchart.decision;whiteSpace=wrap;fontSize=16;" vertex="1" parent="WIyWlLk6GJQsqaUBKTNV-1">
          <mxGeometry x="-45" y="524.5" width="210" height="130" as="geometry" />
        </mxCell>
        <mxCell id="BV8wg840wPrGjcRKnUG_-107" style="edgeStyle=none;curved=1;rounded=0;orthogonalLoop=1;jettySize=auto;html=1;exitX=0.5;exitY=1;exitDx=0;exitDy=0;fontSize=12;startSize=8;endSize=8;" edge="1" parent="WIyWlLk6GJQsqaUBKTNV-1" source="BV8wg840wPrGjcRKnUG_-35" target="BV8wg840wPrGjcRKnUG_-39">
          <mxGeometry relative="1" as="geometry" />
        </mxCell>
        <mxCell id="BV8wg840wPrGjcRKnUG_-35" value="menjadikan nilai dari argumen kedua sebagai keyword barang" style="rounded=1;whiteSpace=wrap;html=1;absoluteArcSize=1;arcSize=14;strokeWidth=2;fontSize=16;" vertex="1" parent="WIyWlLk6GJQsqaUBKTNV-1">
          <mxGeometry x="-30" y="720" width="180" height="100" as="geometry" />
        </mxCell>
        <mxCell id="BV8wg840wPrGjcRKnUG_-110" value="" style="edgeStyle=none;curved=1;rounded=0;orthogonalLoop=1;jettySize=auto;html=1;fontSize=12;startSize=8;endSize=8;" edge="1" parent="WIyWlLk6GJQsqaUBKTNV-1" source="BV8wg840wPrGjcRKnUG_-38" target="BV8wg840wPrGjcRKnUG_-40">
          <mxGeometry relative="1" as="geometry" />
        </mxCell>
        <mxCell id="BV8wg840wPrGjcRKnUG_-38" value="membuka file barang.txt" style="strokeWidth=2;html=1;shape=mxgraph.flowchart.document2;whiteSpace=wrap;size=0.25;fontSize=16;" vertex="1" parent="WIyWlLk6GJQsqaUBKTNV-1">
          <mxGeometry x="-7.5" y="1050" width="135" height="99" as="geometry" />
        </mxCell>
        <mxCell id="BV8wg840wPrGjcRKnUG_-109" style="edgeStyle=none;curved=1;rounded=0;orthogonalLoop=1;jettySize=auto;html=1;exitX=0.5;exitY=1;exitDx=0;exitDy=0;fontSize=12;startSize=8;endSize=8;" edge="1" parent="WIyWlLk6GJQsqaUBKTNV-1" source="BV8wg840wPrGjcRKnUG_-39" target="BV8wg840wPrGjcRKnUG_-38">
          <mxGeometry relative="1" as="geometry" />
        </mxCell>
        <mxCell id="BV8wg840wPrGjcRKnUG_-39" value="hasilCari &lt;br&gt;= &lt;br&gt;slice barang" style="shape=parallelogram;html=1;strokeWidth=2;perimeter=parallelogramPerimeter;whiteSpace=wrap;rounded=1;arcSize=12;size=0.23;fontSize=16;" vertex="1" parent="WIyWlLk6GJQsqaUBKTNV-1">
          <mxGeometry x="-28.75" y="910" width="177.5" height="60" as="geometry" />
        </mxCell>
        <mxCell id="BV8wg840wPrGjcRKnUG_-111" value="" style="edgeStyle=none;curved=1;rounded=0;orthogonalLoop=1;jettySize=auto;html=1;fontSize=12;startSize=8;endSize=8;" edge="1" parent="WIyWlLk6GJQsqaUBKTNV-1" source="BV8wg840wPrGjcRKnUG_-40" target="BV8wg840wPrGjcRKnUG_-41">
          <mxGeometry relative="1" as="geometry" />
        </mxCell>
        <mxCell id="BV8wg840wPrGjcRKnUG_-40" value="menyocokkan setiap data dari file barang.txt&amp;nbsp;" style="rounded=1;whiteSpace=wrap;html=1;absoluteArcSize=1;arcSize=14;strokeWidth=2;fontSize=16;" vertex="1" parent="WIyWlLk6GJQsqaUBKTNV-1">
          <mxGeometry x="-27.5" y="1210" width="175" height="100" as="geometry" />
        </mxCell>
        <mxCell id="BV8wg840wPrGjcRKnUG_-112" value="" style="edgeStyle=none;curved=1;rounded=0;orthogonalLoop=1;jettySize=auto;html=1;fontSize=12;startSize=8;endSize=8;" edge="1" parent="WIyWlLk6GJQsqaUBKTNV-1" source="BV8wg840wPrGjcRKnUG_-41" target="BV8wg840wPrGjcRKnUG_-42">
          <mxGeometry relative="1" as="geometry" />
        </mxCell>
        <mxCell id="BV8wg840wPrGjcRKnUG_-113" value="true" style="edgeLabel;html=1;align=center;verticalAlign=middle;resizable=0;points=[];fontSize=16;" vertex="1" connectable="0" parent="BV8wg840wPrGjcRKnUG_-112">
          <mxGeometry x="-0.2002" relative="1" as="geometry">
            <mxPoint as="offset" />
          </mxGeometry>
        </mxCell>
        <mxCell id="BV8wg840wPrGjcRKnUG_-114" style="edgeStyle=orthogonalEdgeStyle;rounded=0;orthogonalLoop=1;jettySize=auto;html=1;exitX=0;exitY=0.5;exitDx=0;exitDy=0;exitPerimeter=0;fontSize=12;startSize=8;endSize=8;" edge="1" parent="WIyWlLk6GJQsqaUBKTNV-1" source="BV8wg840wPrGjcRKnUG_-41" target="BV8wg840wPrGjcRKnUG_-45">
          <mxGeometry relative="1" as="geometry">
            <Array as="points">
              <mxPoint x="-60" y="1420" />
              <mxPoint x="-60" y="290" />
              <mxPoint x="-1085" y="290" />
            </Array>
          </mxGeometry>
        </mxCell>
        <mxCell id="BV8wg840wPrGjcRKnUG_-115" value="false" style="edgeLabel;html=1;align=center;verticalAlign=middle;resizable=0;points=[];fontSize=16;" vertex="1" connectable="0" parent="BV8wg840wPrGjcRKnUG_-114">
          <mxGeometry x="-0.5065" relative="1" as="geometry">
            <mxPoint as="offset" />
          </mxGeometry>
        </mxCell>
        <mxCell id="BV8wg840wPrGjcRKnUG_-41" value="ada data yang sama?" style="strokeWidth=2;html=1;shape=mxgraph.flowchart.decision;whiteSpace=wrap;fontSize=16;" vertex="1" parent="WIyWlLk6GJQsqaUBKTNV-1">
          <mxGeometry x="-17.5" y="1370" width="155" height="100" as="geometry" />
        </mxCell>
        <mxCell id="BV8wg840wPrGjcRKnUG_-116" value="" style="edgeStyle=none;curved=1;rounded=0;orthogonalLoop=1;jettySize=auto;html=1;fontSize=12;startSize=8;endSize=8;" edge="1" parent="WIyWlLk6GJQsqaUBKTNV-1" source="BV8wg840wPrGjcRKnUG_-42" target="BV8wg840wPrGjcRKnUG_-47">
          <mxGeometry relative="1" as="geometry" />
        </mxCell>
        <mxCell id="BV8wg840wPrGjcRKnUG_-42" value="menyimpan data tersebut kedalam slice hasilCari" style="rounded=1;whiteSpace=wrap;html=1;absoluteArcSize=1;arcSize=14;strokeWidth=2;fontSize=16;" vertex="1" parent="WIyWlLk6GJQsqaUBKTNV-1">
          <mxGeometry x="-12.5" y="1540" width="140" height="100" as="geometry" />
        </mxCell>
        <mxCell id="BV8wg840wPrGjcRKnUG_-43" value="menampilkan data&lt;br&gt;&amp;nbsp;barang yang ada dalam slice hasilCari" style="strokeWidth=2;html=1;shape=mxgraph.flowchart.display;whiteSpace=wrap;fontSize=16;" vertex="1" parent="WIyWlLk6GJQsqaUBKTNV-1">
          <mxGeometry x="-35" y="1870" width="190" height="100" as="geometry" />
        </mxCell>
        <mxCell id="BV8wg840wPrGjcRKnUG_-44" value="menampilkan pesan perintah tidak valid" style="strokeWidth=2;html=1;shape=mxgraph.flowchart.display;whiteSpace=wrap;fontSize=16;" vertex="1" parent="WIyWlLk6GJQsqaUBKTNV-1">
          <mxGeometry x="-890" y="370" width="190" height="100" as="geometry" />
        </mxCell>
        <mxCell id="BV8wg840wPrGjcRKnUG_-45" value="menampilkan pesan&lt;br&gt;&amp;nbsp;data tidak ada" style="strokeWidth=2;html=1;shape=mxgraph.flowchart.display;whiteSpace=wrap;fontSize=16;" vertex="1" parent="WIyWlLk6GJQsqaUBKTNV-1">
          <mxGeometry x="-1180" y="375" width="190" height="100" as="geometry" />
        </mxCell>
        <mxCell id="BV8wg840wPrGjcRKnUG_-117" value="" style="edgeStyle=none;curved=1;rounded=0;orthogonalLoop=1;jettySize=auto;html=1;fontSize=12;startSize=8;endSize=8;" edge="1" parent="WIyWlLk6GJQsqaUBKTNV-1" source="BV8wg840wPrGjcRKnUG_-47" target="BV8wg840wPrGjcRKnUG_-43">
          <mxGeometry relative="1" as="geometry" />
        </mxCell>
        <mxCell id="BV8wg840wPrGjcRKnUG_-47" value="menutup file barang.txt" style="strokeWidth=2;html=1;shape=mxgraph.flowchart.document2;whiteSpace=wrap;size=0.25;fontSize=16;" vertex="1" parent="WIyWlLk6GJQsqaUBKTNV-1">
          <mxGeometry x="-10" y="1720" width="135" height="99" as="geometry" />
        </mxCell>
        <mxCell id="BV8wg840wPrGjcRKnUG_-120" value="" style="edgeStyle=none;curved=1;rounded=0;orthogonalLoop=1;jettySize=auto;html=1;fontSize=12;startSize=8;endSize=8;" edge="1" parent="WIyWlLk6GJQsqaUBKTNV-1" source="BV8wg840wPrGjcRKnUG_-48" target="BV8wg840wPrGjcRKnUG_-50">
          <mxGeometry relative="1" as="geometry" />
        </mxCell>
        <mxCell id="BV8wg840wPrGjcRKnUG_-48" value="membuka file barang.txt" style="strokeWidth=2;html=1;shape=mxgraph.flowchart.document2;whiteSpace=wrap;size=0.25;fontSize=16;" vertex="1" parent="WIyWlLk6GJQsqaUBKTNV-1">
          <mxGeometry x="-277.5" y="540" width="135" height="99" as="geometry" />
        </mxCell>
        <mxCell id="BV8wg840wPrGjcRKnUG_-121" value="" style="edgeStyle=none;curved=1;rounded=0;orthogonalLoop=1;jettySize=auto;html=1;fontSize=12;startSize=8;endSize=8;" edge="1" parent="WIyWlLk6GJQsqaUBKTNV-1" source="BV8wg840wPrGjcRKnUG_-50" target="BV8wg840wPrGjcRKnUG_-51">
          <mxGeometry relative="1" as="geometry" />
        </mxCell>
        <mxCell id="BV8wg840wPrGjcRKnUG_-50" value="membaca semua data yang ada dalam file barang.txt" style="rounded=1;whiteSpace=wrap;html=1;absoluteArcSize=1;arcSize=14;strokeWidth=2;fontSize=16;" vertex="1" parent="WIyWlLk6GJQsqaUBKTNV-1">
          <mxGeometry x="-300" y="720" width="180" height="100" as="geometry" />
        </mxCell>
        <mxCell id="BV8wg840wPrGjcRKnUG_-122" value="" style="edgeStyle=none;curved=1;rounded=0;orthogonalLoop=1;jettySize=auto;html=1;fontSize=12;startSize=8;endSize=8;" edge="1" parent="WIyWlLk6GJQsqaUBKTNV-1" source="BV8wg840wPrGjcRKnUG_-51" target="BV8wg840wPrGjcRKnUG_-52">
          <mxGeometry relative="1" as="geometry" />
        </mxCell>
        <mxCell id="BV8wg840wPrGjcRKnUG_-123" value="true" style="edgeLabel;html=1;align=center;verticalAlign=middle;resizable=0;points=[];fontSize=16;" vertex="1" connectable="0" parent="BV8wg840wPrGjcRKnUG_-122">
          <mxGeometry x="-0.28" y="1" relative="1" as="geometry">
            <mxPoint as="offset" />
          </mxGeometry>
        </mxCell>
        <mxCell id="BV8wg840wPrGjcRKnUG_-125" style="edgeStyle=orthogonalEdgeStyle;rounded=0;orthogonalLoop=1;jettySize=auto;html=1;exitX=0;exitY=0.5;exitDx=0;exitDy=0;exitPerimeter=0;fontSize=12;startSize=8;endSize=8;entryX=0.5;entryY=0;entryDx=0;entryDy=0;entryPerimeter=0;" edge="1" parent="WIyWlLk6GJQsqaUBKTNV-1" source="BV8wg840wPrGjcRKnUG_-51" target="BV8wg840wPrGjcRKnUG_-124">
          <mxGeometry relative="1" as="geometry">
            <Array as="points">
              <mxPoint x="-340" y="930" />
              <mxPoint x="-340" y="250" />
              <mxPoint x="-1345" y="250" />
            </Array>
          </mxGeometry>
        </mxCell>
        <mxCell id="BV8wg840wPrGjcRKnUG_-126" value="false" style="edgeLabel;html=1;align=center;verticalAlign=middle;resizable=0;points=[];fontSize=16;" vertex="1" connectable="0" parent="BV8wg840wPrGjcRKnUG_-125">
          <mxGeometry x="-0.6881" y="-3" relative="1" as="geometry">
            <mxPoint as="offset" />
          </mxGeometry>
        </mxCell>
        <mxCell id="BV8wg840wPrGjcRKnUG_-51" value="jumlah data &amp;gt; 0 ?" style="strokeWidth=2;html=1;shape=mxgraph.flowchart.decision;whiteSpace=wrap;fontSize=16;" vertex="1" parent="WIyWlLk6GJQsqaUBKTNV-1">
          <mxGeometry x="-315" y="865" width="210" height="130" as="geometry" />
        </mxCell>
        <mxCell id="BV8wg840wPrGjcRKnUG_-127" style="edgeStyle=none;curved=1;rounded=0;orthogonalLoop=1;jettySize=auto;html=1;exitX=0.5;exitY=1;exitDx=0;exitDy=0;fontSize=12;startSize=8;endSize=8;" edge="1" parent="WIyWlLk6GJQsqaUBKTNV-1" source="BV8wg840wPrGjcRKnUG_-52" target="BV8wg840wPrGjcRKnUG_-53">
          <mxGeometry relative="1" as="geometry" />
        </mxCell>
        <mxCell id="BV8wg840wPrGjcRKnUG_-52" value="membaca semua data yang ada dalam file barang.txt" style="rounded=1;whiteSpace=wrap;html=1;absoluteArcSize=1;arcSize=14;strokeWidth=2;fontSize=16;" vertex="1" parent="WIyWlLk6GJQsqaUBKTNV-1">
          <mxGeometry x="-300" y="1040" width="180" height="100" as="geometry" />
        </mxCell>
        <mxCell id="BV8wg840wPrGjcRKnUG_-128" value="" style="edgeStyle=none;curved=1;rounded=0;orthogonalLoop=1;jettySize=auto;html=1;fontSize=12;startSize=8;endSize=8;" edge="1" parent="WIyWlLk6GJQsqaUBKTNV-1" source="BV8wg840wPrGjcRKnUG_-53" target="BV8wg840wPrGjcRKnUG_-55">
          <mxGeometry relative="1" as="geometry" />
        </mxCell>
        <mxCell id="BV8wg840wPrGjcRKnUG_-53" value="memasukkan semua data dalam file barang.txt ke dalam slice data" style="rounded=1;whiteSpace=wrap;html=1;absoluteArcSize=1;arcSize=14;strokeWidth=2;fontSize=16;" vertex="1" parent="WIyWlLk6GJQsqaUBKTNV-1">
          <mxGeometry x="-300" y="1200" width="180" height="100" as="geometry" />
        </mxCell>
        <mxCell id="BV8wg840wPrGjcRKnUG_-54" value="menampilkan semua &lt;br&gt;data barang" style="strokeWidth=2;html=1;shape=mxgraph.flowchart.display;whiteSpace=wrap;fontSize=16;" vertex="1" parent="WIyWlLk6GJQsqaUBKTNV-1">
          <mxGeometry x="-305" y="1540" width="190" height="100" as="geometry" />
        </mxCell>
        <mxCell id="BV8wg840wPrGjcRKnUG_-129" value="" style="edgeStyle=none;curved=1;rounded=0;orthogonalLoop=1;jettySize=auto;html=1;fontSize=12;startSize=8;endSize=8;" edge="1" parent="WIyWlLk6GJQsqaUBKTNV-1" source="BV8wg840wPrGjcRKnUG_-55" target="BV8wg840wPrGjcRKnUG_-54">
          <mxGeometry relative="1" as="geometry" />
        </mxCell>
        <mxCell id="BV8wg840wPrGjcRKnUG_-55" value="menutup file barang.txt" style="strokeWidth=2;html=1;shape=mxgraph.flowchart.document2;whiteSpace=wrap;size=0.25;fontSize=16;" vertex="1" parent="WIyWlLk6GJQsqaUBKTNV-1">
          <mxGeometry x="-277.5" y="1370" width="135" height="99" as="geometry" />
        </mxCell>
        <mxCell id="BV8wg840wPrGjcRKnUG_-56" value="menampilkan data &lt;br&gt;tentang apllikasi" style="strokeWidth=2;html=1;shape=mxgraph.flowchart.display;whiteSpace=wrap;fontSize=16;" vertex="1" parent="WIyWlLk6GJQsqaUBKTNV-1">
          <mxGeometry x="-625" y="535" width="190" height="100" as="geometry" />
        </mxCell>
        <mxCell id="BV8wg840wPrGjcRKnUG_-61" value="menampilkan &lt;br&gt;halaman&amp;nbsp;utama" style="strokeWidth=2;html=1;shape=mxgraph.flowchart.display;whiteSpace=wrap;fontSize=16;" vertex="1" parent="WIyWlLk6GJQsqaUBKTNV-1">
          <mxGeometry x="790" y="370" width="190" height="100" as="geometry" />
        </mxCell>
        <mxCell id="BV8wg840wPrGjcRKnUG_-64" style="edgeStyle=none;curved=1;rounded=0;orthogonalLoop=1;jettySize=auto;html=1;exitX=0;exitY=0.5;exitDx=0;exitDy=0;exitPerimeter=0;entryX=1;entryY=0.5;entryDx=0;entryDy=0;entryPerimeter=0;fontSize=12;startSize=8;endSize=8;" edge="1" parent="WIyWlLk6GJQsqaUBKTNV-1" source="BV8wg840wPrGjcRKnUG_-3" target="BV8wg840wPrGjcRKnUG_-4">
          <mxGeometry relative="1" as="geometry" />
        </mxCell>
        <mxCell id="BV8wg840wPrGjcRKnUG_-65" value="true" style="edgeLabel;html=1;align=center;verticalAlign=middle;resizable=0;points=[];fontSize=16;" vertex="1" connectable="0" parent="BV8wg840wPrGjcRKnUG_-64">
          <mxGeometry x="0.0802" y="6" relative="1" as="geometry">
            <mxPoint as="offset" />
          </mxGeometry>
        </mxCell>
        <mxCell id="BV8wg840wPrGjcRKnUG_-66" value="l" style="edgeStyle=none;curved=1;rounded=0;orthogonalLoop=1;jettySize=auto;html=1;exitX=0;exitY=0.5;exitDx=0;exitDy=0;exitPerimeter=0;entryX=1;entryY=0.5;entryDx=0;entryDy=0;entryPerimeter=0;fontSize=12;startSize=8;endSize=8;" edge="1" parent="WIyWlLk6GJQsqaUBKTNV-1" source="BV8wg840wPrGjcRKnUG_-4" target="BV8wg840wPrGjcRKnUG_-6">
          <mxGeometry relative="1" as="geometry" />
        </mxCell>
        <mxCell id="BV8wg840wPrGjcRKnUG_-67" value="false" style="edgeLabel;html=1;align=center;verticalAlign=middle;resizable=0;points=[];fontSize=16;" vertex="1" connectable="0" parent="BV8wg840wPrGjcRKnUG_-66">
          <mxGeometry x="0.0336" y="3" relative="1" as="geometry">
            <mxPoint as="offset" />
          </mxGeometry>
        </mxCell>
        <mxCell id="BV8wg840wPrGjcRKnUG_-68" value="end" style="strokeWidth=2;html=1;shape=mxgraph.flowchart.terminator;whiteSpace=wrap;fontSize=16;" vertex="1" parent="WIyWlLk6GJQsqaUBKTNV-1">
          <mxGeometry x="620" y="3260" width="100" height="60" as="geometry" />
        </mxCell>
        <mxCell id="BV8wg840wPrGjcRKnUG_-69" style="edgeStyle=none;curved=1;rounded=0;orthogonalLoop=1;jettySize=auto;html=1;exitX=0;exitY=0.5;exitDx=0;exitDy=0;exitPerimeter=0;entryX=1;entryY=0.5;entryDx=0;entryDy=0;entryPerimeter=0;fontSize=12;startSize=8;endSize=8;" edge="1" parent="WIyWlLk6GJQsqaUBKTNV-1" source="BV8wg840wPrGjcRKnUG_-6" target="BV8wg840wPrGjcRKnUG_-8">
          <mxGeometry relative="1" as="geometry" />
        </mxCell>
        <mxCell id="BV8wg840wPrGjcRKnUG_-70" value="false" style="edgeLabel;html=1;align=center;verticalAlign=middle;resizable=0;points=[];fontSize=16;" vertex="1" connectable="0" parent="BV8wg840wPrGjcRKnUG_-69">
          <mxGeometry x="-0.0118" y="5" relative="1" as="geometry">
            <mxPoint as="offset" />
          </mxGeometry>
        </mxCell>
        <mxCell id="BV8wg840wPrGjcRKnUG_-71" style="edgeStyle=none;curved=1;rounded=0;orthogonalLoop=1;jettySize=auto;html=1;exitX=0;exitY=0.5;exitDx=0;exitDy=0;exitPerimeter=0;entryX=1;entryY=0.5;entryDx=0;entryDy=0;entryPerimeter=0;fontSize=12;startSize=8;endSize=8;" edge="1" parent="WIyWlLk6GJQsqaUBKTNV-1" source="BV8wg840wPrGjcRKnUG_-8" target="BV8wg840wPrGjcRKnUG_-7">
          <mxGeometry relative="1" as="geometry" />
        </mxCell>
        <mxCell id="BV8wg840wPrGjcRKnUG_-72" value="false" style="edgeLabel;html=1;align=center;verticalAlign=middle;resizable=0;points=[];fontSize=16;" vertex="1" connectable="0" parent="BV8wg840wPrGjcRKnUG_-71">
          <mxGeometry x="0.3523" y="-1" relative="1" as="geometry">
            <mxPoint as="offset" />
          </mxGeometry>
        </mxCell>
        <mxCell id="BV8wg840wPrGjcRKnUG_-80" style="edgeStyle=orthogonalEdgeStyle;rounded=0;orthogonalLoop=1;jettySize=auto;html=1;exitX=1;exitY=0.5;exitDx=0;exitDy=0;exitPerimeter=0;entryX=0.5;entryY=0;entryDx=0;entryDy=0;entryPerimeter=0;fontSize=12;startSize=8;endSize=8;" edge="1" parent="WIyWlLk6GJQsqaUBKTNV-1" source="BV8wg840wPrGjcRKnUG_-10" target="BV8wg840wPrGjcRKnUG_-68">
          <mxGeometry relative="1" as="geometry" />
        </mxCell>
        <mxCell id="BV8wg840wPrGjcRKnUG_-81" value="false" style="edgeLabel;html=1;align=center;verticalAlign=middle;resizable=0;points=[];fontSize=16;" vertex="1" connectable="0" parent="BV8wg840wPrGjcRKnUG_-80">
          <mxGeometry x="-0.4348" y="22" relative="1" as="geometry">
            <mxPoint x="-22" y="-2" as="offset" />
          </mxGeometry>
        </mxCell>
        <mxCell id="BV8wg840wPrGjcRKnUG_-82" style="edgeStyle=none;curved=1;rounded=0;orthogonalLoop=1;jettySize=auto;html=1;exitX=0.5;exitY=1;exitDx=0;exitDy=0;entryX=0.457;entryY=-0.032;entryDx=0;entryDy=0;entryPerimeter=0;fontSize=12;startSize=8;endSize=8;" edge="1" parent="WIyWlLk6GJQsqaUBKTNV-1" source="BV8wg840wPrGjcRKnUG_-11" target="BV8wg840wPrGjcRKnUG_-12">
          <mxGeometry relative="1" as="geometry" />
        </mxCell>
        <mxCell id="BV8wg840wPrGjcRKnUG_-85" style="edgeStyle=none;curved=1;rounded=0;orthogonalLoop=1;jettySize=auto;html=1;exitX=0.5;exitY=1;exitDx=0;exitDy=0;entryX=0.5;entryY=0;entryDx=0;entryDy=0;entryPerimeter=0;fontSize=12;startSize=8;endSize=8;" edge="1" parent="WIyWlLk6GJQsqaUBKTNV-1" source="BV8wg840wPrGjcRKnUG_-19">
          <mxGeometry relative="1" as="geometry">
            <mxPoint x="338.75" y="1370" as="targetPoint" />
          </mxGeometry>
        </mxCell>
        <mxCell id="BV8wg840wPrGjcRKnUG_-88" style="edgeStyle=none;curved=1;rounded=0;orthogonalLoop=1;jettySize=auto;html=1;exitX=0.5;exitY=1;exitDx=0;exitDy=0;fontSize=12;startSize=8;endSize=8;" edge="1" parent="WIyWlLk6GJQsqaUBKTNV-1">
          <mxGeometry relative="1" as="geometry">
            <mxPoint x="341.25" y="1470" as="sourcePoint" />
            <mxPoint x="340" y="1530" as="targetPoint" />
          </mxGeometry>
        </mxCell>
        <mxCell id="BV8wg840wPrGjcRKnUG_-99" value="membuka file barang.txt" style="strokeWidth=2;html=1;shape=mxgraph.flowchart.document2;whiteSpace=wrap;size=0.25;fontSize=16;" vertex="1" parent="WIyWlLk6GJQsqaUBKTNV-1">
          <mxGeometry x="271.25" y="1370.5" width="135" height="99" as="geometry" />
        </mxCell>
        <mxCell id="BV8wg840wPrGjcRKnUG_-102" style="edgeStyle=none;curved=1;rounded=0;orthogonalLoop=1;jettySize=auto;html=1;exitX=0.5;exitY=1;exitDx=0;exitDy=0;exitPerimeter=0;entryX=0.5;entryY=0;entryDx=0;entryDy=0;entryPerimeter=0;fontSize=12;startSize=8;endSize=8;" edge="1" parent="WIyWlLk6GJQsqaUBKTNV-1" source="BV8wg840wPrGjcRKnUG_-6" target="BV8wg840wPrGjcRKnUG_-34">
          <mxGeometry relative="1" as="geometry" />
        </mxCell>
        <mxCell id="BV8wg840wPrGjcRKnUG_-103" style="edgeStyle=orthogonalEdgeStyle;rounded=0;orthogonalLoop=1;jettySize=auto;html=1;exitX=1;exitY=0.5;exitDx=0;exitDy=0;exitPerimeter=0;entryX=0;entryY=0.5;entryDx=0;entryDy=0;entryPerimeter=0;fontSize=12;startSize=8;endSize=8;" edge="1" parent="WIyWlLk6GJQsqaUBKTNV-1" source="BV8wg840wPrGjcRKnUG_-34" target="BV8wg840wPrGjcRKnUG_-68">
          <mxGeometry relative="1" as="geometry">
            <Array as="points">
              <mxPoint x="200" y="590" />
              <mxPoint x="200" y="3290" />
            </Array>
          </mxGeometry>
        </mxCell>
        <mxCell id="BV8wg840wPrGjcRKnUG_-104" value="false" style="edgeLabel;html=1;align=center;verticalAlign=middle;resizable=0;points=[];fontSize=16;" vertex="1" connectable="0" parent="BV8wg840wPrGjcRKnUG_-103">
          <mxGeometry x="-0.8764" y="2" relative="1" as="geometry">
            <mxPoint y="-1" as="offset" />
          </mxGeometry>
        </mxCell>
        <mxCell id="BV8wg840wPrGjcRKnUG_-118" style="edgeStyle=orthogonalEdgeStyle;rounded=0;orthogonalLoop=1;jettySize=auto;html=1;exitX=0.5;exitY=1;exitDx=0;exitDy=0;exitPerimeter=0;entryX=0;entryY=0.5;entryDx=0;entryDy=0;entryPerimeter=0;fontSize=12;startSize=8;endSize=8;" edge="1" parent="WIyWlLk6GJQsqaUBKTNV-1" source="BV8wg840wPrGjcRKnUG_-43" target="BV8wg840wPrGjcRKnUG_-68">
          <mxGeometry relative="1" as="geometry" />
        </mxCell>
        <mxCell id="BV8wg840wPrGjcRKnUG_-119" style="edgeStyle=none;curved=1;rounded=0;orthogonalLoop=1;jettySize=auto;html=1;exitX=0.5;exitY=1;exitDx=0;exitDy=0;exitPerimeter=0;entryX=0.5;entryY=0;entryDx=0;entryDy=0;entryPerimeter=0;fontSize=12;startSize=8;endSize=8;" edge="1" parent="WIyWlLk6GJQsqaUBKTNV-1" source="BV8wg840wPrGjcRKnUG_-8" target="BV8wg840wPrGjcRKnUG_-48">
          <mxGeometry relative="1" as="geometry" />
        </mxCell>
        <mxCell id="BV8wg840wPrGjcRKnUG_-124" value="menampilkan pesan&lt;br&gt;&amp;nbsp;data kosong" style="strokeWidth=2;html=1;shape=mxgraph.flowchart.display;whiteSpace=wrap;fontSize=16;" vertex="1" parent="WIyWlLk6GJQsqaUBKTNV-1">
          <mxGeometry x="-1440" y="375" width="190" height="100" as="geometry" />
        </mxCell>
        <mxCell id="BV8wg840wPrGjcRKnUG_-130" style="edgeStyle=orthogonalEdgeStyle;rounded=0;orthogonalLoop=1;jettySize=auto;html=1;exitX=0.5;exitY=1;exitDx=0;exitDy=0;exitPerimeter=0;entryX=0;entryY=0.5;entryDx=0;entryDy=0;entryPerimeter=0;fontSize=12;startSize=8;endSize=8;" edge="1" parent="WIyWlLk6GJQsqaUBKTNV-1" source="BV8wg840wPrGjcRKnUG_-54" target="BV8wg840wPrGjcRKnUG_-68">
          <mxGeometry relative="1" as="geometry" />
        </mxCell>
        <mxCell id="BV8wg840wPrGjcRKnUG_-132" style="edgeStyle=orthogonalEdgeStyle;rounded=0;orthogonalLoop=1;jettySize=auto;html=1;exitX=0.5;exitY=1;exitDx=0;exitDy=0;exitPerimeter=0;entryX=0;entryY=0.5;entryDx=0;entryDy=0;entryPerimeter=0;fontSize=12;startSize=8;endSize=8;" edge="1" parent="WIyWlLk6GJQsqaUBKTNV-1" source="BV8wg840wPrGjcRKnUG_-56" target="BV8wg840wPrGjcRKnUG_-68">
          <mxGeometry relative="1" as="geometry" />
        </mxCell>
        <mxCell id="BV8wg840wPrGjcRKnUG_-133" style="edgeStyle=orthogonalEdgeStyle;rounded=0;orthogonalLoop=1;jettySize=auto;html=1;exitX=0.5;exitY=1;exitDx=0;exitDy=0;exitPerimeter=0;entryX=0;entryY=0.5;entryDx=0;entryDy=0;entryPerimeter=0;fontSize=12;startSize=8;endSize=8;" edge="1" parent="WIyWlLk6GJQsqaUBKTNV-1" source="BV8wg840wPrGjcRKnUG_-44" target="BV8wg840wPrGjcRKnUG_-68">
          <mxGeometry relative="1" as="geometry" />
        </mxCell>
        <mxCell id="BV8wg840wPrGjcRKnUG_-134" style="edgeStyle=orthogonalEdgeStyle;rounded=0;orthogonalLoop=1;jettySize=auto;html=1;exitX=0.5;exitY=1;exitDx=0;exitDy=0;exitPerimeter=0;entryX=0;entryY=0.5;entryDx=0;entryDy=0;entryPerimeter=0;fontSize=12;startSize=8;endSize=8;" edge="1" parent="WIyWlLk6GJQsqaUBKTNV-1" source="BV8wg840wPrGjcRKnUG_-45" target="BV8wg840wPrGjcRKnUG_-68">
          <mxGeometry relative="1" as="geometry" />
        </mxCell>
        <mxCell id="BV8wg840wPrGjcRKnUG_-135" style="edgeStyle=orthogonalEdgeStyle;rounded=0;orthogonalLoop=1;jettySize=auto;html=1;exitX=0.5;exitY=1;exitDx=0;exitDy=0;exitPerimeter=0;entryX=0;entryY=0.5;entryDx=0;entryDy=0;entryPerimeter=0;fontSize=12;startSize=8;endSize=8;" edge="1" parent="WIyWlLk6GJQsqaUBKTNV-1" source="BV8wg840wPrGjcRKnUG_-124" target="BV8wg840wPrGjcRKnUG_-68">
          <mxGeometry relative="1" as="geometry" />
        </mxCell>
        <mxCell id="BV8wg840wPrGjcRKnUG_-191" value="" style="edgeStyle=none;curved=1;rounded=0;orthogonalLoop=1;jettySize=auto;html=1;fontSize=12;startSize=8;endSize=8;entryX=0.579;entryY=0;entryDx=0;entryDy=0;entryPerimeter=0;" edge="1" parent="WIyWlLk6GJQsqaUBKTNV-1" source="BV8wg840wPrGjcRKnUG_-137" target="BV8wg840wPrGjcRKnUG_-140">
          <mxGeometry relative="1" as="geometry" />
        </mxCell>
        <mxCell id="BV8wg840wPrGjcRKnUG_-192" value="true" style="edgeLabel;html=1;align=center;verticalAlign=middle;resizable=0;points=[];fontSize=16;" vertex="1" connectable="0" parent="BV8wg840wPrGjcRKnUG_-191">
          <mxGeometry x="-0.1747" y="2" relative="1" as="geometry">
            <mxPoint as="offset" />
          </mxGeometry>
        </mxCell>
        <mxCell id="BV8wg840wPrGjcRKnUG_-209" value="" style="edgeStyle=none;curved=1;rounded=0;orthogonalLoop=1;jettySize=auto;html=1;fontSize=12;startSize=8;endSize=8;" edge="1" parent="WIyWlLk6GJQsqaUBKTNV-1" source="BV8wg840wPrGjcRKnUG_-137" target="BV8wg840wPrGjcRKnUG_-169">
          <mxGeometry relative="1" as="geometry" />
        </mxCell>
        <mxCell id="BV8wg840wPrGjcRKnUG_-216" value="false" style="edgeLabel;html=1;align=center;verticalAlign=middle;resizable=0;points=[];fontSize=16;" vertex="1" connectable="0" parent="BV8wg840wPrGjcRKnUG_-209">
          <mxGeometry x="0.1348" y="3" relative="1" as="geometry">
            <mxPoint as="offset" />
          </mxGeometry>
        </mxCell>
        <mxCell id="BV8wg840wPrGjcRKnUG_-137" value="memilih angka 1" style="strokeWidth=2;html=1;shape=mxgraph.flowchart.decision;whiteSpace=wrap;fontSize=16;" vertex="1" parent="WIyWlLk6GJQsqaUBKTNV-1">
          <mxGeometry x="1660" y="370" width="200" height="110" as="geometry" />
        </mxCell>
        <mxCell id="BV8wg840wPrGjcRKnUG_-193" value="" style="edgeStyle=none;curved=1;rounded=0;orthogonalLoop=1;jettySize=auto;html=1;fontSize=12;startSize=8;endSize=8;exitX=0.575;exitY=1.02;exitDx=0;exitDy=0;exitPerimeter=0;" edge="1" parent="WIyWlLk6GJQsqaUBKTNV-1" source="BV8wg840wPrGjcRKnUG_-140" target="BV8wg840wPrGjcRKnUG_-141">
          <mxGeometry relative="1" as="geometry" />
        </mxCell>
        <mxCell id="BV8wg840wPrGjcRKnUG_-140" value="menampilkan pesan&amp;nbsp;&lt;br&gt;input nama barang" style="strokeWidth=2;html=1;shape=mxgraph.flowchart.display;whiteSpace=wrap;fontSize=16;" vertex="1" parent="WIyWlLk6GJQsqaUBKTNV-1">
          <mxGeometry x="1650" y="540" width="190" height="100" as="geometry" />
        </mxCell>
        <mxCell id="BV8wg840wPrGjcRKnUG_-194" style="edgeStyle=none;curved=1;rounded=0;orthogonalLoop=1;jettySize=auto;html=1;exitX=0.5;exitY=1;exitDx=0;exitDy=0;fontSize=12;startSize=8;endSize=8;" edge="1" parent="WIyWlLk6GJQsqaUBKTNV-1" source="BV8wg840wPrGjcRKnUG_-141" target="BV8wg840wPrGjcRKnUG_-145">
          <mxGeometry relative="1" as="geometry" />
        </mxCell>
        <mxCell id="BV8wg840wPrGjcRKnUG_-141" value="user input nama barang" style="shape=parallelogram;html=1;strokeWidth=2;perimeter=parallelogramPerimeter;whiteSpace=wrap;rounded=1;arcSize=12;size=0.23;fontSize=16;" vertex="1" parent="WIyWlLk6GJQsqaUBKTNV-1">
          <mxGeometry x="1640" y="705" width="240" height="60" as="geometry" />
        </mxCell>
        <mxCell id="BV8wg840wPrGjcRKnUG_-142" value="user input harga barang" style="shape=parallelogram;html=1;strokeWidth=2;perimeter=parallelogramPerimeter;whiteSpace=wrap;rounded=1;arcSize=12;size=0.23;fontSize=16;" vertex="1" parent="WIyWlLk6GJQsqaUBKTNV-1">
          <mxGeometry x="1660" y="1320" width="240" height="60" as="geometry" />
        </mxCell>
        <mxCell id="BV8wg840wPrGjcRKnUG_-143" value="menampilkan pesan&amp;nbsp;&lt;br&gt;input harga barang" style="strokeWidth=2;html=1;shape=mxgraph.flowchart.display;whiteSpace=wrap;fontSize=16;" vertex="1" parent="WIyWlLk6GJQsqaUBKTNV-1">
          <mxGeometry x="1670" y="1155" width="190" height="100" as="geometry" />
        </mxCell>
        <mxCell id="BV8wg840wPrGjcRKnUG_-144" value="user input stock barang" style="shape=parallelogram;html=1;strokeWidth=2;perimeter=parallelogramPerimeter;whiteSpace=wrap;rounded=1;arcSize=12;size=0.23;fontSize=16;" vertex="1" parent="WIyWlLk6GJQsqaUBKTNV-1">
          <mxGeometry x="1660" y="1010" width="240" height="60" as="geometry" />
        </mxCell>
        <mxCell id="BV8wg840wPrGjcRKnUG_-145" value="menampilkan pesan&amp;nbsp;&lt;br&gt;input stock barang" style="strokeWidth=2;html=1;shape=mxgraph.flowchart.display;whiteSpace=wrap;fontSize=16;" vertex="1" parent="WIyWlLk6GJQsqaUBKTNV-1">
          <mxGeometry x="1665" y="845" width="190" height="100" as="geometry" />
        </mxCell>
        <mxCell id="BV8wg840wPrGjcRKnUG_-199" value="" style="edgeStyle=none;curved=1;rounded=0;orthogonalLoop=1;jettySize=auto;html=1;fontSize=12;startSize=8;endSize=8;" edge="1" parent="WIyWlLk6GJQsqaUBKTNV-1" source="BV8wg840wPrGjcRKnUG_-146" target="BV8wg840wPrGjcRKnUG_-147">
          <mxGeometry relative="1" as="geometry" />
        </mxCell>
        <mxCell id="BV8wg840wPrGjcRKnUG_-146" value="memasukkan nilai dari nama, stok dan harga ke slice Barang" style="rounded=1;whiteSpace=wrap;html=1;absoluteArcSize=1;arcSize=14;strokeWidth=2;fontSize=16;" vertex="1" parent="WIyWlLk6GJQsqaUBKTNV-1">
          <mxGeometry x="1660" y="1465" width="205" height="100" as="geometry" />
        </mxCell>
        <mxCell id="BV8wg840wPrGjcRKnUG_-200" value="" style="edgeStyle=none;curved=1;rounded=0;orthogonalLoop=1;jettySize=auto;html=1;fontSize=12;startSize=8;endSize=8;" edge="1" parent="WIyWlLk6GJQsqaUBKTNV-1" source="BV8wg840wPrGjcRKnUG_-147" target="BV8wg840wPrGjcRKnUG_-148">
          <mxGeometry relative="1" as="geometry" />
        </mxCell>
        <mxCell id="BV8wg840wPrGjcRKnUG_-147" value="membuka file barang.txt" style="strokeWidth=2;html=1;shape=mxgraph.flowchart.document2;whiteSpace=wrap;size=0.25;fontSize=16;" vertex="1" parent="WIyWlLk6GJQsqaUBKTNV-1">
          <mxGeometry x="1695" y="1625.5" width="135" height="99" as="geometry" />
        </mxCell>
        <mxCell id="BV8wg840wPrGjcRKnUG_-201" value="" style="edgeStyle=none;curved=1;rounded=0;orthogonalLoop=1;jettySize=auto;html=1;fontSize=12;startSize=8;endSize=8;" edge="1" parent="WIyWlLk6GJQsqaUBKTNV-1" source="BV8wg840wPrGjcRKnUG_-148" target="BV8wg840wPrGjcRKnUG_-149">
          <mxGeometry relative="1" as="geometry" />
        </mxCell>
        <mxCell id="BV8wg840wPrGjcRKnUG_-148" value="stokInt = 0&lt;br&gt;hargaFloat = 0.0" style="shape=parallelogram;html=1;strokeWidth=2;perimeter=parallelogramPerimeter;whiteSpace=wrap;rounded=1;arcSize=12;size=0.23;fontSize=16;" vertex="1" parent="WIyWlLk6GJQsqaUBKTNV-1">
          <mxGeometry x="1665.5" y="1785" width="200" height="80" as="geometry" />
        </mxCell>
        <mxCell id="BV8wg840wPrGjcRKnUG_-202" value="" style="edgeStyle=none;curved=1;rounded=0;orthogonalLoop=1;jettySize=auto;html=1;fontSize=12;startSize=8;endSize=8;" edge="1" parent="WIyWlLk6GJQsqaUBKTNV-1" source="BV8wg840wPrGjcRKnUG_-149" target="BV8wg840wPrGjcRKnUG_-150">
          <mxGeometry relative="1" as="geometry" />
        </mxCell>
        <mxCell id="BV8wg840wPrGjcRKnUG_-149" value="melakukan konfersi tipe data harga dari string menjadi float64" style="rounded=1;whiteSpace=wrap;html=1;absoluteArcSize=1;arcSize=14;strokeWidth=2;fontSize=16;" vertex="1" parent="WIyWlLk6GJQsqaUBKTNV-1">
          <mxGeometry x="1670" y="1935" width="195" height="100" as="geometry" />
        </mxCell>
        <mxCell id="BV8wg840wPrGjcRKnUG_-203" value="" style="edgeStyle=none;curved=1;rounded=0;orthogonalLoop=1;jettySize=auto;html=1;fontSize=12;startSize=8;endSize=8;" edge="1" parent="WIyWlLk6GJQsqaUBKTNV-1" source="BV8wg840wPrGjcRKnUG_-150" target="BV8wg840wPrGjcRKnUG_-151">
          <mxGeometry relative="1" as="geometry" />
        </mxCell>
        <mxCell id="BV8wg840wPrGjcRKnUG_-150" value="melakukan konfersi tipe data stok dari string menjadi int" style="rounded=1;whiteSpace=wrap;html=1;absoluteArcSize=1;arcSize=14;strokeWidth=2;fontSize=16;" vertex="1" parent="WIyWlLk6GJQsqaUBKTNV-1">
          <mxGeometry x="1670" y="2085" width="195" height="100" as="geometry" />
        </mxCell>
        <mxCell id="BV8wg840wPrGjcRKnUG_-204" value="" style="edgeStyle=none;curved=1;rounded=0;orthogonalLoop=1;jettySize=auto;html=1;fontSize=12;startSize=8;endSize=8;" edge="1" parent="WIyWlLk6GJQsqaUBKTNV-1" source="BV8wg840wPrGjcRKnUG_-151" target="BV8wg840wPrGjcRKnUG_-152">
          <mxGeometry relative="1" as="geometry" />
        </mxCell>
        <mxCell id="BV8wg840wPrGjcRKnUG_-151" value="membuat object dengan nama barang, yang berisi data dari slice barang yang tipe datanya telah di konversi&amp;nbsp;" style="rounded=1;whiteSpace=wrap;html=1;absoluteArcSize=1;arcSize=14;strokeWidth=2;fontSize=16;" vertex="1" parent="WIyWlLk6GJQsqaUBKTNV-1">
          <mxGeometry x="1672.5" y="2245" width="195" height="100" as="geometry" />
        </mxCell>
        <mxCell id="BV8wg840wPrGjcRKnUG_-205" value="" style="edgeStyle=none;curved=1;rounded=0;orthogonalLoop=1;jettySize=auto;html=1;fontSize=12;startSize=8;endSize=8;" edge="1" parent="WIyWlLk6GJQsqaUBKTNV-1" source="BV8wg840wPrGjcRKnUG_-152" target="BV8wg840wPrGjcRKnUG_-153">
          <mxGeometry relative="1" as="geometry" />
        </mxCell>
        <mxCell id="BV8wg840wPrGjcRKnUG_-152" value="memasukkan data dari objek barang ke dalam slice data" style="rounded=1;whiteSpace=wrap;html=1;absoluteArcSize=1;arcSize=14;strokeWidth=2;fontSize=16;" vertex="1" parent="WIyWlLk6GJQsqaUBKTNV-1">
          <mxGeometry x="1672.5" y="2415" width="197.5" height="100" as="geometry" />
        </mxCell>
        <mxCell id="BV8wg840wPrGjcRKnUG_-206" value="" style="edgeStyle=none;curved=1;rounded=0;orthogonalLoop=1;jettySize=auto;html=1;fontSize=12;startSize=8;endSize=8;entryX=0.52;entryY=0.016;entryDx=0;entryDy=0;entryPerimeter=0;" edge="1" parent="WIyWlLk6GJQsqaUBKTNV-1" source="BV8wg840wPrGjcRKnUG_-153" target="BV8wg840wPrGjcRKnUG_-154">
          <mxGeometry relative="1" as="geometry" />
        </mxCell>
        <mxCell id="BV8wg840wPrGjcRKnUG_-153" value="melakukan reformat slice data ke dalam bentuk json" style="rounded=1;whiteSpace=wrap;html=1;absoluteArcSize=1;arcSize=14;strokeWidth=2;fontSize=16;" vertex="1" parent="WIyWlLk6GJQsqaUBKTNV-1">
          <mxGeometry x="1672.5" y="2585" width="205" height="100" as="geometry" />
        </mxCell>
        <mxCell id="BV8wg840wPrGjcRKnUG_-207" value="" style="edgeStyle=none;curved=1;rounded=0;orthogonalLoop=1;jettySize=auto;html=1;fontSize=12;startSize=8;endSize=8;" edge="1" parent="WIyWlLk6GJQsqaUBKTNV-1" source="BV8wg840wPrGjcRKnUG_-154" target="BV8wg840wPrGjcRKnUG_-155">
          <mxGeometry relative="1" as="geometry" />
        </mxCell>
        <mxCell id="BV8wg840wPrGjcRKnUG_-154" value="&amp;nbsp;menuliskan data json dalam bentuk string ke dalam file barang.txt" style="rounded=1;whiteSpace=wrap;html=1;absoluteArcSize=1;arcSize=14;strokeWidth=2;fontSize=16;" vertex="1" parent="WIyWlLk6GJQsqaUBKTNV-1">
          <mxGeometry x="1670" y="2755" width="205" height="100" as="geometry" />
        </mxCell>
        <mxCell id="BV8wg840wPrGjcRKnUG_-208" value="" style="edgeStyle=none;curved=1;rounded=0;orthogonalLoop=1;jettySize=auto;html=1;fontSize=12;startSize=8;endSize=8;" edge="1" parent="WIyWlLk6GJQsqaUBKTNV-1" source="BV8wg840wPrGjcRKnUG_-155" target="BV8wg840wPrGjcRKnUG_-158">
          <mxGeometry relative="1" as="geometry" />
        </mxCell>
        <mxCell id="BV8wg840wPrGjcRKnUG_-155" value="menutup file barang.txt" style="strokeWidth=2;html=1;shape=mxgraph.flowchart.document2;whiteSpace=wrap;size=0.25;fontSize=16;" vertex="1" parent="WIyWlLk6GJQsqaUBKTNV-1">
          <mxGeometry x="1705" y="2925" width="135" height="99" as="geometry" />
        </mxCell>
        <mxCell id="BV8wg840wPrGjcRKnUG_-157" value="menampilkan pesan berhasil tambah data" style="strokeWidth=2;html=1;shape=mxgraph.flowchart.display;whiteSpace=wrap;fontSize=16;" vertex="1" parent="WIyWlLk6GJQsqaUBKTNV-1">
          <mxGeometry x="248.75" y="2860" width="190" height="100" as="geometry" />
        </mxCell>
        <mxCell id="BV8wg840wPrGjcRKnUG_-158" value="menampilkan pesan berhasil tambah data" style="strokeWidth=2;html=1;shape=mxgraph.flowchart.display;whiteSpace=wrap;fontSize=16;" vertex="1" parent="WIyWlLk6GJQsqaUBKTNV-1">
          <mxGeometry x="1675.5" y="3090" width="190" height="100" as="geometry" />
        </mxCell>
        <mxCell id="BV8wg840wPrGjcRKnUG_-211" value="" style="edgeStyle=none;curved=1;rounded=0;orthogonalLoop=1;jettySize=auto;html=1;fontSize=12;startSize=8;endSize=8;" edge="1" parent="WIyWlLk6GJQsqaUBKTNV-1" source="BV8wg840wPrGjcRKnUG_-159" target="BV8wg840wPrGjcRKnUG_-181">
          <mxGeometry relative="1" as="geometry" />
        </mxCell>
        <mxCell id="BV8wg840wPrGjcRKnUG_-218" value="false" style="edgeLabel;html=1;align=center;verticalAlign=middle;resizable=0;points=[];fontSize=16;" vertex="1" connectable="0" parent="BV8wg840wPrGjcRKnUG_-211">
          <mxGeometry x="-0.2566" relative="1" as="geometry">
            <mxPoint as="offset" />
          </mxGeometry>
        </mxCell>
        <mxCell id="BV8wg840wPrGjcRKnUG_-226" value="" style="edgeStyle=none;curved=1;rounded=0;orthogonalLoop=1;jettySize=auto;html=1;fontSize=12;startSize=8;endSize=8;" edge="1" parent="WIyWlLk6GJQsqaUBKTNV-1" source="BV8wg840wPrGjcRKnUG_-159" target="BV8wg840wPrGjcRKnUG_-160">
          <mxGeometry relative="1" as="geometry" />
        </mxCell>
        <mxCell id="BV8wg840wPrGjcRKnUG_-227" value="true" style="edgeLabel;html=1;align=center;verticalAlign=middle;resizable=0;points=[];fontSize=16;" vertex="1" connectable="0" parent="BV8wg840wPrGjcRKnUG_-226">
          <mxGeometry x="-0.2716" relative="1" as="geometry">
            <mxPoint as="offset" />
          </mxGeometry>
        </mxCell>
        <mxCell id="BV8wg840wPrGjcRKnUG_-159" value="memilih angka 3" style="strokeWidth=2;html=1;shape=mxgraph.flowchart.decision;whiteSpace=wrap;fontSize=16;" vertex="1" parent="WIyWlLk6GJQsqaUBKTNV-1">
          <mxGeometry x="2270" y="370" width="200" height="110" as="geometry" />
        </mxCell>
        <mxCell id="BV8wg840wPrGjcRKnUG_-228" value="" style="edgeStyle=none;curved=1;rounded=0;orthogonalLoop=1;jettySize=auto;html=1;fontSize=12;startSize=8;endSize=8;" edge="1" parent="WIyWlLk6GJQsqaUBKTNV-1" source="BV8wg840wPrGjcRKnUG_-160" target="BV8wg840wPrGjcRKnUG_-161">
          <mxGeometry relative="1" as="geometry" />
        </mxCell>
        <mxCell id="BV8wg840wPrGjcRKnUG_-160" value="menampilkan pesan&amp;nbsp;&lt;br&gt;input nama barang sebagai keyword" style="strokeWidth=2;html=1;shape=mxgraph.flowchart.display;whiteSpace=wrap;fontSize=16;" vertex="1" parent="WIyWlLk6GJQsqaUBKTNV-1">
          <mxGeometry x="2280" y="540" width="190" height="100" as="geometry" />
        </mxCell>
        <mxCell id="BV8wg840wPrGjcRKnUG_-229" value="" style="edgeStyle=none;curved=1;rounded=0;orthogonalLoop=1;jettySize=auto;html=1;fontSize=12;startSize=8;endSize=8;" edge="1" parent="WIyWlLk6GJQsqaUBKTNV-1" source="BV8wg840wPrGjcRKnUG_-161" target="BV8wg840wPrGjcRKnUG_-162">
          <mxGeometry relative="1" as="geometry" />
        </mxCell>
        <mxCell id="BV8wg840wPrGjcRKnUG_-161" value="user input keyword" style="shape=parallelogram;html=1;strokeWidth=2;perimeter=parallelogramPerimeter;whiteSpace=wrap;rounded=1;arcSize=12;size=0.23;fontSize=16;" vertex="1" parent="WIyWlLk6GJQsqaUBKTNV-1">
          <mxGeometry x="2250" y="705" width="240" height="60" as="geometry" />
        </mxCell>
        <mxCell id="BV8wg840wPrGjcRKnUG_-230" value="" style="edgeStyle=none;curved=1;rounded=0;orthogonalLoop=1;jettySize=auto;html=1;fontSize=12;startSize=8;endSize=8;" edge="1" parent="WIyWlLk6GJQsqaUBKTNV-1" source="BV8wg840wPrGjcRKnUG_-162" target="BV8wg840wPrGjcRKnUG_-163">
          <mxGeometry relative="1" as="geometry" />
        </mxCell>
        <mxCell id="BV8wg840wPrGjcRKnUG_-162" value="hasilCari &lt;br&gt;= &lt;br&gt;slice barang" style="shape=parallelogram;html=1;strokeWidth=2;perimeter=parallelogramPerimeter;whiteSpace=wrap;rounded=1;arcSize=12;size=0.23;fontSize=16;" vertex="1" parent="WIyWlLk6GJQsqaUBKTNV-1">
          <mxGeometry x="2281.25" y="845" width="177.5" height="60" as="geometry" />
        </mxCell>
        <mxCell id="BV8wg840wPrGjcRKnUG_-231" value="" style="edgeStyle=none;curved=1;rounded=0;orthogonalLoop=1;jettySize=auto;html=1;fontSize=12;startSize=8;endSize=8;" edge="1" parent="WIyWlLk6GJQsqaUBKTNV-1" source="BV8wg840wPrGjcRKnUG_-163" target="BV8wg840wPrGjcRKnUG_-164">
          <mxGeometry relative="1" as="geometry" />
        </mxCell>
        <mxCell id="BV8wg840wPrGjcRKnUG_-163" value="membuka file barang.txt" style="strokeWidth=2;html=1;shape=mxgraph.flowchart.document2;whiteSpace=wrap;size=0.25;fontSize=16;" vertex="1" parent="WIyWlLk6GJQsqaUBKTNV-1">
          <mxGeometry x="2302.5" y="985" width="135" height="99" as="geometry" />
        </mxCell>
        <mxCell id="BV8wg840wPrGjcRKnUG_-232" value="" style="edgeStyle=none;curved=1;rounded=0;orthogonalLoop=1;jettySize=auto;html=1;fontSize=12;startSize=8;endSize=8;" edge="1" parent="WIyWlLk6GJQsqaUBKTNV-1" source="BV8wg840wPrGjcRKnUG_-164" target="BV8wg840wPrGjcRKnUG_-165">
          <mxGeometry relative="1" as="geometry" />
        </mxCell>
        <mxCell id="BV8wg840wPrGjcRKnUG_-164" value="menyocokkan setiap data dari file barang.txt&amp;nbsp;" style="rounded=1;whiteSpace=wrap;html=1;absoluteArcSize=1;arcSize=14;strokeWidth=2;fontSize=16;" vertex="1" parent="WIyWlLk6GJQsqaUBKTNV-1">
          <mxGeometry x="2282.5" y="1145" width="175" height="100" as="geometry" />
        </mxCell>
        <mxCell id="BV8wg840wPrGjcRKnUG_-233" value="" style="edgeStyle=none;curved=1;rounded=0;orthogonalLoop=1;jettySize=auto;html=1;fontSize=12;startSize=8;endSize=8;" edge="1" parent="WIyWlLk6GJQsqaUBKTNV-1" source="BV8wg840wPrGjcRKnUG_-165" target="BV8wg840wPrGjcRKnUG_-166">
          <mxGeometry relative="1" as="geometry" />
        </mxCell>
        <mxCell id="BV8wg840wPrGjcRKnUG_-165" value="ada data yang sama?" style="strokeWidth=2;html=1;shape=mxgraph.flowchart.decision;whiteSpace=wrap;fontSize=16;" vertex="1" parent="WIyWlLk6GJQsqaUBKTNV-1">
          <mxGeometry x="2292.5" y="1305" width="155" height="100" as="geometry" />
        </mxCell>
        <mxCell id="BV8wg840wPrGjcRKnUG_-234" value="" style="edgeStyle=none;curved=1;rounded=0;orthogonalLoop=1;jettySize=auto;html=1;fontSize=12;startSize=8;endSize=8;" edge="1" parent="WIyWlLk6GJQsqaUBKTNV-1" source="BV8wg840wPrGjcRKnUG_-166" target="BV8wg840wPrGjcRKnUG_-167">
          <mxGeometry relative="1" as="geometry" />
        </mxCell>
        <mxCell id="BV8wg840wPrGjcRKnUG_-166" value="menyimpan data tersebut kedalam slice hasilCari" style="rounded=1;whiteSpace=wrap;html=1;absoluteArcSize=1;arcSize=14;strokeWidth=2;fontSize=16;" vertex="1" parent="WIyWlLk6GJQsqaUBKTNV-1">
          <mxGeometry x="2297.5" y="1475" width="140" height="100" as="geometry" />
        </mxCell>
        <mxCell id="BV8wg840wPrGjcRKnUG_-235" value="" style="edgeStyle=none;curved=1;rounded=0;orthogonalLoop=1;jettySize=auto;html=1;fontSize=12;startSize=8;endSize=8;" edge="1" parent="WIyWlLk6GJQsqaUBKTNV-1" source="BV8wg840wPrGjcRKnUG_-167" target="BV8wg840wPrGjcRKnUG_-168">
          <mxGeometry relative="1" as="geometry" />
        </mxCell>
        <mxCell id="BV8wg840wPrGjcRKnUG_-167" value="menutup file barang.txt" style="strokeWidth=2;html=1;shape=mxgraph.flowchart.document2;whiteSpace=wrap;size=0.25;fontSize=16;" vertex="1" parent="WIyWlLk6GJQsqaUBKTNV-1">
          <mxGeometry x="2300" y="1655" width="135" height="99" as="geometry" />
        </mxCell>
        <mxCell id="BV8wg840wPrGjcRKnUG_-168" value="menampilkan data&lt;br&gt;&amp;nbsp;barang yang ada dalam slice hasilCari" style="strokeWidth=2;html=1;shape=mxgraph.flowchart.display;whiteSpace=wrap;fontSize=16;" vertex="1" parent="WIyWlLk6GJQsqaUBKTNV-1">
          <mxGeometry x="2275" y="1805" width="190" height="100" as="geometry" />
        </mxCell>
        <mxCell id="BV8wg840wPrGjcRKnUG_-210" value="" style="edgeStyle=none;curved=1;rounded=0;orthogonalLoop=1;jettySize=auto;html=1;fontSize=12;startSize=8;endSize=8;" edge="1" parent="WIyWlLk6GJQsqaUBKTNV-1" source="BV8wg840wPrGjcRKnUG_-169" target="BV8wg840wPrGjcRKnUG_-159">
          <mxGeometry relative="1" as="geometry" />
        </mxCell>
        <mxCell id="BV8wg840wPrGjcRKnUG_-217" value="false" style="edgeLabel;html=1;align=center;verticalAlign=middle;resizable=0;points=[];fontSize=16;" vertex="1" connectable="0" parent="BV8wg840wPrGjcRKnUG_-210">
          <mxGeometry x="-0.253" y="-3" relative="1" as="geometry">
            <mxPoint as="offset" />
          </mxGeometry>
        </mxCell>
        <mxCell id="BV8wg840wPrGjcRKnUG_-215" value="" style="edgeStyle=none;curved=1;rounded=0;orthogonalLoop=1;jettySize=auto;html=1;fontSize=12;startSize=8;endSize=8;" edge="1" parent="WIyWlLk6GJQsqaUBKTNV-1" source="BV8wg840wPrGjcRKnUG_-169" target="BV8wg840wPrGjcRKnUG_-174">
          <mxGeometry relative="1" as="geometry" />
        </mxCell>
        <mxCell id="BV8wg840wPrGjcRKnUG_-169" value="memilih angka 2" style="strokeWidth=2;html=1;shape=mxgraph.flowchart.decision;whiteSpace=wrap;fontSize=16;" vertex="1" parent="WIyWlLk6GJQsqaUBKTNV-1">
          <mxGeometry x="1960" y="370" width="200" height="110" as="geometry" />
        </mxCell>
        <mxCell id="BV8wg840wPrGjcRKnUG_-189" value="" style="edgeStyle=none;curved=1;rounded=0;orthogonalLoop=1;jettySize=auto;html=1;fontSize=12;startSize=8;endSize=8;" edge="1" parent="WIyWlLk6GJQsqaUBKTNV-1" source="BV8wg840wPrGjcRKnUG_-170" target="BV8wg840wPrGjcRKnUG_-171">
          <mxGeometry relative="1" as="geometry" />
        </mxCell>
        <mxCell id="BV8wg840wPrGjcRKnUG_-170" value="user&amp;nbsp; input&lt;br&gt;&amp;nbsp;pilihan" style="shape=parallelogram;html=1;strokeWidth=2;perimeter=parallelogramPerimeter;whiteSpace=wrap;rounded=1;arcSize=12;size=0.23;fontSize=16;" vertex="1" parent="WIyWlLk6GJQsqaUBKTNV-1">
          <mxGeometry x="1050" y="395" width="150" height="60" as="geometry" />
        </mxCell>
        <mxCell id="BV8wg840wPrGjcRKnUG_-190" value="" style="edgeStyle=none;curved=1;rounded=0;orthogonalLoop=1;jettySize=auto;html=1;fontSize=12;startSize=8;endSize=8;" edge="1" parent="WIyWlLk6GJQsqaUBKTNV-1" source="BV8wg840wPrGjcRKnUG_-171" target="BV8wg840wPrGjcRKnUG_-137">
          <mxGeometry relative="1" as="geometry" />
        </mxCell>
        <mxCell id="BV8wg840wPrGjcRKnUG_-171" value="angka di program berjalan sesuai dengan pilihan menu dari user" style="rounded=1;whiteSpace=wrap;html=1;absoluteArcSize=1;arcSize=14;strokeWidth=2;fontSize=16;" vertex="1" parent="WIyWlLk6GJQsqaUBKTNV-1">
          <mxGeometry x="1350" y="370" width="180" height="100" as="geometry" />
        </mxCell>
        <mxCell id="BV8wg840wPrGjcRKnUG_-220" value="" style="edgeStyle=none;curved=1;rounded=0;orthogonalLoop=1;jettySize=auto;html=1;fontSize=12;startSize=8;endSize=8;" edge="1" parent="WIyWlLk6GJQsqaUBKTNV-1" source="BV8wg840wPrGjcRKnUG_-174" target="BV8wg840wPrGjcRKnUG_-175">
          <mxGeometry relative="1" as="geometry" />
        </mxCell>
        <mxCell id="BV8wg840wPrGjcRKnUG_-174" value="membuka file barang.txt" style="strokeWidth=2;html=1;shape=mxgraph.flowchart.document2;whiteSpace=wrap;size=0.25;fontSize=16;" vertex="1" parent="WIyWlLk6GJQsqaUBKTNV-1">
          <mxGeometry x="1992.5" y="540" width="135" height="99" as="geometry" />
        </mxCell>
        <mxCell id="BV8wg840wPrGjcRKnUG_-221" value="" style="edgeStyle=none;curved=1;rounded=0;orthogonalLoop=1;jettySize=auto;html=1;fontSize=12;startSize=8;endSize=8;" edge="1" parent="WIyWlLk6GJQsqaUBKTNV-1" source="BV8wg840wPrGjcRKnUG_-175" target="BV8wg840wPrGjcRKnUG_-176">
          <mxGeometry relative="1" as="geometry" />
        </mxCell>
        <mxCell id="BV8wg840wPrGjcRKnUG_-175" value="membaca semua data yang ada dalam file barang.txt" style="rounded=1;whiteSpace=wrap;html=1;absoluteArcSize=1;arcSize=14;strokeWidth=2;fontSize=16;" vertex="1" parent="WIyWlLk6GJQsqaUBKTNV-1">
          <mxGeometry x="1970" y="720" width="180" height="100" as="geometry" />
        </mxCell>
        <mxCell id="BV8wg840wPrGjcRKnUG_-222" value="" style="edgeStyle=none;curved=1;rounded=0;orthogonalLoop=1;jettySize=auto;html=1;fontSize=12;startSize=8;endSize=8;" edge="1" parent="WIyWlLk6GJQsqaUBKTNV-1" source="BV8wg840wPrGjcRKnUG_-176" target="BV8wg840wPrGjcRKnUG_-177">
          <mxGeometry relative="1" as="geometry" />
        </mxCell>
        <mxCell id="BV8wg840wPrGjcRKnUG_-236" value="true" style="edgeLabel;html=1;align=center;verticalAlign=middle;resizable=0;points=[];fontSize=16;" vertex="1" connectable="0" parent="BV8wg840wPrGjcRKnUG_-222">
          <mxGeometry x="-0.2444" y="2" relative="1" as="geometry">
            <mxPoint as="offset" />
          </mxGeometry>
        </mxCell>
        <mxCell id="BV8wg840wPrGjcRKnUG_-176" value="jumlah data &amp;gt; 0 ?" style="strokeWidth=2;html=1;shape=mxgraph.flowchart.decision;whiteSpace=wrap;fontSize=16;" vertex="1" parent="WIyWlLk6GJQsqaUBKTNV-1">
          <mxGeometry x="1955" y="865" width="210" height="130" as="geometry" />
        </mxCell>
        <mxCell id="BV8wg840wPrGjcRKnUG_-223" value="" style="edgeStyle=none;curved=1;rounded=0;orthogonalLoop=1;jettySize=auto;html=1;fontSize=12;startSize=8;endSize=8;" edge="1" parent="WIyWlLk6GJQsqaUBKTNV-1" source="BV8wg840wPrGjcRKnUG_-177" target="BV8wg840wPrGjcRKnUG_-178">
          <mxGeometry relative="1" as="geometry" />
        </mxCell>
        <mxCell id="BV8wg840wPrGjcRKnUG_-177" value="membaca semua data yang ada dalam file barang.txt" style="rounded=1;whiteSpace=wrap;html=1;absoluteArcSize=1;arcSize=14;strokeWidth=2;fontSize=16;" vertex="1" parent="WIyWlLk6GJQsqaUBKTNV-1">
          <mxGeometry x="1970" y="1040" width="180" height="100" as="geometry" />
        </mxCell>
        <mxCell id="BV8wg840wPrGjcRKnUG_-224" value="" style="edgeStyle=none;curved=1;rounded=0;orthogonalLoop=1;jettySize=auto;html=1;fontSize=12;startSize=8;endSize=8;" edge="1" parent="WIyWlLk6GJQsqaUBKTNV-1" source="BV8wg840wPrGjcRKnUG_-178" target="BV8wg840wPrGjcRKnUG_-179">
          <mxGeometry relative="1" as="geometry" />
        </mxCell>
        <mxCell id="BV8wg840wPrGjcRKnUG_-178" value="memasukkan semua data dalam file barang.txt ke dalam slice data" style="rounded=1;whiteSpace=wrap;html=1;absoluteArcSize=1;arcSize=14;strokeWidth=2;fontSize=16;" vertex="1" parent="WIyWlLk6GJQsqaUBKTNV-1">
          <mxGeometry x="1970" y="1200" width="180" height="100" as="geometry" />
        </mxCell>
        <mxCell id="BV8wg840wPrGjcRKnUG_-225" value="" style="edgeStyle=none;curved=1;rounded=0;orthogonalLoop=1;jettySize=auto;html=1;fontSize=12;startSize=8;endSize=8;" edge="1" parent="WIyWlLk6GJQsqaUBKTNV-1" source="BV8wg840wPrGjcRKnUG_-179" target="BV8wg840wPrGjcRKnUG_-180">
          <mxGeometry relative="1" as="geometry" />
        </mxCell>
        <mxCell id="BV8wg840wPrGjcRKnUG_-179" value="menutup file barang.txt" style="strokeWidth=2;html=1;shape=mxgraph.flowchart.document2;whiteSpace=wrap;size=0.25;fontSize=16;" vertex="1" parent="WIyWlLk6GJQsqaUBKTNV-1">
          <mxGeometry x="1992.5" y="1370" width="135" height="99" as="geometry" />
        </mxCell>
        <mxCell id="BV8wg840wPrGjcRKnUG_-180" value="menampilkan semua &lt;br&gt;data barang" style="strokeWidth=2;html=1;shape=mxgraph.flowchart.display;whiteSpace=wrap;fontSize=16;" vertex="1" parent="WIyWlLk6GJQsqaUBKTNV-1">
          <mxGeometry x="1965" y="1540" width="190" height="100" as="geometry" />
        </mxCell>
        <mxCell id="BV8wg840wPrGjcRKnUG_-212" value="" style="edgeStyle=none;curved=1;rounded=0;orthogonalLoop=1;jettySize=auto;html=1;fontSize=12;startSize=8;endSize=8;" edge="1" parent="WIyWlLk6GJQsqaUBKTNV-1" source="BV8wg840wPrGjcRKnUG_-181" target="BV8wg840wPrGjcRKnUG_-183">
          <mxGeometry relative="1" as="geometry" />
        </mxCell>
        <mxCell id="BV8wg840wPrGjcRKnUG_-219" value="false" style="edgeLabel;html=1;align=center;verticalAlign=middle;resizable=0;points=[];fontSize=16;" vertex="1" connectable="0" parent="BV8wg840wPrGjcRKnUG_-212">
          <mxGeometry x="0.0163" relative="1" as="geometry">
            <mxPoint as="offset" />
          </mxGeometry>
        </mxCell>
        <mxCell id="BV8wg840wPrGjcRKnUG_-181" value="memilih angka 4" style="strokeWidth=2;html=1;shape=mxgraph.flowchart.decision;whiteSpace=wrap;fontSize=16;" vertex="1" parent="WIyWlLk6GJQsqaUBKTNV-1">
          <mxGeometry x="2570" y="365" width="200" height="110" as="geometry" />
        </mxCell>
        <mxCell id="BV8wg840wPrGjcRKnUG_-182" value="menampilkan data &lt;br&gt;tentang apllikasi" style="strokeWidth=2;html=1;shape=mxgraph.flowchart.display;whiteSpace=wrap;fontSize=16;" vertex="1" parent="WIyWlLk6GJQsqaUBKTNV-1">
          <mxGeometry x="2575" y="535" width="190" height="100" as="geometry" />
        </mxCell>
        <mxCell id="BV8wg840wPrGjcRKnUG_-213" value="" style="edgeStyle=none;curved=1;rounded=0;orthogonalLoop=1;jettySize=auto;html=1;fontSize=12;startSize=8;endSize=8;" edge="1" parent="WIyWlLk6GJQsqaUBKTNV-1" source="BV8wg840wPrGjcRKnUG_-183" target="BV8wg840wPrGjcRKnUG_-184">
          <mxGeometry relative="1" as="geometry" />
        </mxCell>
        <mxCell id="BV8wg840wPrGjcRKnUG_-183" value="memilih angka 5" style="strokeWidth=2;html=1;shape=mxgraph.flowchart.decision;whiteSpace=wrap;fontSize=16;" vertex="1" parent="WIyWlLk6GJQsqaUBKTNV-1">
          <mxGeometry x="2850" y="365" width="200" height="110" as="geometry" />
        </mxCell>
        <mxCell id="BV8wg840wPrGjcRKnUG_-214" value="" style="edgeStyle=none;curved=1;rounded=0;orthogonalLoop=1;jettySize=auto;html=1;fontSize=12;startSize=8;endSize=8;" edge="1" parent="WIyWlLk6GJQsqaUBKTNV-1" source="BV8wg840wPrGjcRKnUG_-184" target="BV8wg840wPrGjcRKnUG_-185">
          <mxGeometry relative="1" as="geometry" />
        </mxCell>
        <mxCell id="BV8wg840wPrGjcRKnUG_-184" value="menampilkan pesan aplikasi telah berhenti" style="strokeWidth=2;html=1;shape=mxgraph.flowchart.display;whiteSpace=wrap;fontSize=16;" vertex="1" parent="WIyWlLk6GJQsqaUBKTNV-1">
          <mxGeometry x="2850" y="535" width="190" height="100" as="geometry" />
        </mxCell>
        <mxCell id="BV8wg840wPrGjcRKnUG_-185" value="program dihentikan" style="rounded=1;whiteSpace=wrap;html=1;absoluteArcSize=1;arcSize=14;strokeWidth=2;fontSize=16;" vertex="1" parent="WIyWlLk6GJQsqaUBKTNV-1">
          <mxGeometry x="2862.5" y="685" width="175" height="100" as="geometry" />
        </mxCell>
        <mxCell id="BV8wg840wPrGjcRKnUG_-186" value="menampilkan pesan&lt;br&gt;&amp;nbsp;data kosong" style="strokeWidth=2;html=1;shape=mxgraph.flowchart.display;whiteSpace=wrap;fontSize=16;" vertex="1" parent="WIyWlLk6GJQsqaUBKTNV-1">
          <mxGeometry x="3130" y="370" width="190" height="100" as="geometry" />
        </mxCell>
        <mxCell id="BV8wg840wPrGjcRKnUG_-187" value="menampilkan pesan&lt;br&gt;&amp;nbsp;data tidak ada" style="strokeWidth=2;html=1;shape=mxgraph.flowchart.display;whiteSpace=wrap;fontSize=16;" vertex="1" parent="WIyWlLk6GJQsqaUBKTNV-1">
          <mxGeometry x="3390" y="370" width="190" height="100" as="geometry" />
        </mxCell>
        <mxCell id="BV8wg840wPrGjcRKnUG_-188" style="edgeStyle=none;curved=1;rounded=0;orthogonalLoop=1;jettySize=auto;html=1;exitX=1;exitY=0.5;exitDx=0;exitDy=0;exitPerimeter=0;fontSize=12;startSize=8;endSize=8;" edge="1" parent="WIyWlLk6GJQsqaUBKTNV-1" source="BV8wg840wPrGjcRKnUG_-61">
          <mxGeometry relative="1" as="geometry">
            <mxPoint x="1070" y="420" as="targetPoint" />
          </mxGeometry>
        </mxCell>
        <mxCell id="BV8wg840wPrGjcRKnUG_-195" style="edgeStyle=none;curved=1;rounded=0;orthogonalLoop=1;jettySize=auto;html=1;exitX=0.5;exitY=1;exitDx=0;exitDy=0;exitPerimeter=0;entryX=0.416;entryY=0;entryDx=0;entryDy=0;entryPerimeter=0;fontSize=12;startSize=8;endSize=8;" edge="1" parent="WIyWlLk6GJQsqaUBKTNV-1" source="BV8wg840wPrGjcRKnUG_-145" target="BV8wg840wPrGjcRKnUG_-144">
          <mxGeometry relative="1" as="geometry" />
        </mxCell>
        <mxCell id="BV8wg840wPrGjcRKnUG_-196" style="edgeStyle=none;curved=1;rounded=0;orthogonalLoop=1;jettySize=auto;html=1;exitX=0.5;exitY=1;exitDx=0;exitDy=0;entryX=0.578;entryY=0.05;entryDx=0;entryDy=0;entryPerimeter=0;fontSize=12;startSize=8;endSize=8;" edge="1" parent="WIyWlLk6GJQsqaUBKTNV-1" source="BV8wg840wPrGjcRKnUG_-144" target="BV8wg840wPrGjcRKnUG_-143">
          <mxGeometry relative="1" as="geometry" />
        </mxCell>
        <mxCell id="BV8wg840wPrGjcRKnUG_-197" style="edgeStyle=none;curved=1;rounded=0;orthogonalLoop=1;jettySize=auto;html=1;exitX=0.5;exitY=1;exitDx=0;exitDy=0;exitPerimeter=0;entryX=0.444;entryY=0.023;entryDx=0;entryDy=0;entryPerimeter=0;fontSize=12;startSize=8;endSize=8;" edge="1" parent="WIyWlLk6GJQsqaUBKTNV-1" source="BV8wg840wPrGjcRKnUG_-143" target="BV8wg840wPrGjcRKnUG_-142">
          <mxGeometry relative="1" as="geometry" />
        </mxCell>
        <mxCell id="BV8wg840wPrGjcRKnUG_-198" style="edgeStyle=none;curved=1;rounded=0;orthogonalLoop=1;jettySize=auto;html=1;exitX=0.454;exitY=0.995;exitDx=0;exitDy=0;fontSize=12;startSize=8;endSize=8;exitPerimeter=0;entryX=0.53;entryY=-0.001;entryDx=0;entryDy=0;entryPerimeter=0;" edge="1" parent="WIyWlLk6GJQsqaUBKTNV-1" source="BV8wg840wPrGjcRKnUG_-142" target="BV8wg840wPrGjcRKnUG_-146">
          <mxGeometry relative="1" as="geometry">
            <mxPoint x="1769" y="1460" as="targetPoint" />
          </mxGeometry>
        </mxCell>
        <mxCell id="BV8wg840wPrGjcRKnUG_-238" style="edgeStyle=orthogonalEdgeStyle;rounded=0;orthogonalLoop=1;jettySize=auto;html=1;exitX=1;exitY=0.5;exitDx=0;exitDy=0;exitPerimeter=0;entryX=0.5;entryY=0;entryDx=0;entryDy=0;entryPerimeter=0;fontSize=12;startSize=8;endSize=8;" edge="1" parent="WIyWlLk6GJQsqaUBKTNV-1" source="BV8wg840wPrGjcRKnUG_-176" target="BV8wg840wPrGjcRKnUG_-187">
          <mxGeometry relative="1" as="geometry">
            <Array as="points">
              <mxPoint x="2220" y="930" />
              <mxPoint x="2220" y="160" />
              <mxPoint x="3485" y="160" />
            </Array>
          </mxGeometry>
        </mxCell>
        <mxCell id="BV8wg840wPrGjcRKnUG_-239" value="false" style="edgeLabel;html=1;align=center;verticalAlign=middle;resizable=0;points=[];fontSize=16;" vertex="1" connectable="0" parent="BV8wg840wPrGjcRKnUG_-238">
          <mxGeometry x="0.2102" y="-1" relative="1" as="geometry">
            <mxPoint x="-1" as="offset" />
          </mxGeometry>
        </mxCell>
        <mxCell id="BV8wg840wPrGjcRKnUG_-240" style="edgeStyle=orthogonalEdgeStyle;rounded=0;orthogonalLoop=1;jettySize=auto;html=1;exitX=1;exitY=0.5;exitDx=0;exitDy=0;exitPerimeter=0;entryX=0.566;entryY=-0.092;entryDx=0;entryDy=0;entryPerimeter=0;fontSize=12;startSize=8;endSize=8;" edge="1" parent="WIyWlLk6GJQsqaUBKTNV-1" source="BV8wg840wPrGjcRKnUG_-165" target="BV8wg840wPrGjcRKnUG_-186">
          <mxGeometry relative="1" as="geometry">
            <Array as="points">
              <mxPoint x="2540" y="1355" />
              <mxPoint x="2540" y="250" />
              <mxPoint x="3238" y="250" />
            </Array>
          </mxGeometry>
        </mxCell>
        <mxCell id="BV8wg840wPrGjcRKnUG_-241" value="false" style="edgeLabel;html=1;align=center;verticalAlign=middle;resizable=0;points=[];fontSize=16;" vertex="1" connectable="0" parent="BV8wg840wPrGjcRKnUG_-240">
          <mxGeometry x="0.5935" y="-2" relative="1" as="geometry">
            <mxPoint as="offset" />
          </mxGeometry>
        </mxCell>
        <mxCell id="BV8wg840wPrGjcRKnUG_-245" style="edgeStyle=orthogonalEdgeStyle;rounded=0;orthogonalLoop=1;jettySize=auto;html=1;exitX=0.5;exitY=1;exitDx=0;exitDy=0;exitPerimeter=0;entryX=0.5;entryY=1;entryDx=0;entryDy=0;entryPerimeter=0;fontSize=12;startSize=8;endSize=8;" edge="1" parent="WIyWlLk6GJQsqaUBKTNV-1" source="BV8wg840wPrGjcRKnUG_-158" target="BV8wg840wPrGjcRKnUG_-61">
          <mxGeometry relative="1" as="geometry">
            <Array as="points">
              <mxPoint x="1770" y="3260" />
              <mxPoint x="885" y="3260" />
            </Array>
          </mxGeometry>
        </mxCell>
        <mxCell id="BV8wg840wPrGjcRKnUG_-246" style="edgeStyle=orthogonalEdgeStyle;rounded=0;orthogonalLoop=1;jettySize=auto;html=1;exitX=0.5;exitY=1;exitDx=0;exitDy=0;exitPerimeter=0;entryX=0.5;entryY=1;entryDx=0;entryDy=0;entryPerimeter=0;fontSize=12;startSize=8;endSize=8;" edge="1" parent="WIyWlLk6GJQsqaUBKTNV-1" source="BV8wg840wPrGjcRKnUG_-180" target="BV8wg840wPrGjcRKnUG_-61">
          <mxGeometry relative="1" as="geometry">
            <Array as="points">
              <mxPoint x="2060" y="3260" />
              <mxPoint x="885" y="3260" />
            </Array>
          </mxGeometry>
        </mxCell>
        <mxCell id="BV8wg840wPrGjcRKnUG_-247" style="edgeStyle=orthogonalEdgeStyle;rounded=0;orthogonalLoop=1;jettySize=auto;html=1;exitX=0.5;exitY=1;exitDx=0;exitDy=0;exitPerimeter=0;entryX=0.5;entryY=1;entryDx=0;entryDy=0;entryPerimeter=0;fontSize=12;startSize=8;endSize=8;" edge="1" parent="WIyWlLk6GJQsqaUBKTNV-1" source="BV8wg840wPrGjcRKnUG_-168" target="BV8wg840wPrGjcRKnUG_-61">
          <mxGeometry relative="1" as="geometry">
            <Array as="points">
              <mxPoint x="2370" y="3260" />
              <mxPoint x="885" y="3260" />
            </Array>
          </mxGeometry>
        </mxCell>
        <mxCell id="BV8wg840wPrGjcRKnUG_-248" style="edgeStyle=orthogonalEdgeStyle;rounded=0;orthogonalLoop=1;jettySize=auto;html=1;exitX=0.5;exitY=1;exitDx=0;exitDy=0;exitPerimeter=0;entryX=0.5;entryY=1;entryDx=0;entryDy=0;entryPerimeter=0;fontSize=12;startSize=8;endSize=8;" edge="1" parent="WIyWlLk6GJQsqaUBKTNV-1" source="BV8wg840wPrGjcRKnUG_-182" target="BV8wg840wPrGjcRKnUG_-61">
          <mxGeometry relative="1" as="geometry">
            <Array as="points">
              <mxPoint x="2670" y="3260" />
              <mxPoint x="885" y="3260" />
            </Array>
          </mxGeometry>
        </mxCell>
        <mxCell id="BV8wg840wPrGjcRKnUG_-249" style="edgeStyle=orthogonalEdgeStyle;rounded=0;orthogonalLoop=1;jettySize=auto;html=1;exitX=0.5;exitY=1;exitDx=0;exitDy=0;entryX=1;entryY=0.5;entryDx=0;entryDy=0;entryPerimeter=0;fontSize=12;startSize=8;endSize=8;" edge="1" parent="WIyWlLk6GJQsqaUBKTNV-1" source="BV8wg840wPrGjcRKnUG_-185" target="BV8wg840wPrGjcRKnUG_-68">
          <mxGeometry relative="1" as="geometry">
            <Array as="points">
              <mxPoint x="2950" y="3290" />
            </Array>
          </mxGeometry>
        </mxCell>
        <mxCell id="BV8wg840wPrGjcRKnUG_-250" style="edgeStyle=orthogonalEdgeStyle;rounded=0;orthogonalLoop=1;jettySize=auto;html=1;exitX=0.5;exitY=1;exitDx=0;exitDy=0;exitPerimeter=0;entryX=0.5;entryY=1;entryDx=0;entryDy=0;entryPerimeter=0;fontSize=12;startSize=8;endSize=8;" edge="1" parent="WIyWlLk6GJQsqaUBKTNV-1" source="BV8wg840wPrGjcRKnUG_-186" target="BV8wg840wPrGjcRKnUG_-61">
          <mxGeometry relative="1" as="geometry">
            <Array as="points">
              <mxPoint x="3225" y="3260" />
              <mxPoint x="885" y="3260" />
            </Array>
          </mxGeometry>
        </mxCell>
        <mxCell id="BV8wg840wPrGjcRKnUG_-252" style="edgeStyle=orthogonalEdgeStyle;rounded=0;orthogonalLoop=1;jettySize=auto;html=1;exitX=0.5;exitY=1;exitDx=0;exitDy=0;exitPerimeter=0;entryX=0.5;entryY=1;entryDx=0;entryDy=0;entryPerimeter=0;fontSize=12;startSize=8;endSize=8;" edge="1" parent="WIyWlLk6GJQsqaUBKTNV-1" source="BV8wg840wPrGjcRKnUG_-187" target="BV8wg840wPrGjcRKnUG_-61">
          <mxGeometry relative="1" as="geometry">
            <Array as="points">
              <mxPoint x="3485" y="3260" />
              <mxPoint x="885" y="3260" />
            </Array>
          </mxGeometry>
        </mxCell>
      </root>
    </mxGraphModel>
  </diagram>
</mxfile>
